<svg width="20" height="20" xmlns="http://www.w3.org/2000/svg">
 <path d="M14.16 19c-.237 0-.03-.374.246-.87.395-.663.606-2.112.142-2.13H3.205c-.304 0-.304 0-.307-.284-.003-.285.103.34.103-4.13V7.295c-.072-.3-.362-.566-.482-.844-.068-.104-.08-.239-.08-.873v-.749l-.38-.76c-.414-.826-.587-1.253-.641-1.576-.02-.113-.127-.391-.24-.617C.933 1.39 1.14 1 1.368 1H14.65c.109 0 .357.113.39.267.098.451-.077.506.092.873.213.46.075.573.229.812.092.144.275.46.405.703.13.242.312.563.402.713.182.301.328.702.402 1.105.045.243.193.542.445.897.137.192.522.968.633 1.275.084.232.093.392.104 1.74.006.878.033 1.618.066 1.81.07.414.342 1.2.489 1.414.093.135.111.214.104.445-.007.205.018.344.093.51.3.674.388.922.414 1.173.041.392 0 .545-.257.952-.124.197-.248.447-.276.556-.118.469-.306.775-.618 1.008-.177.131-.324.634-.41.856-.047.122-.149.271-.15.492-.004.427.029.399-.4.399H14.16z" style="stroke:#000;stroke-width:2;stroke-miterlimit:4"/>
 <path d="M14.16 19c-.237 0-.03-.374.246-.87.395-.663.606-2.112.142-2.13H3.205c-.304 0-.304 0-.307-.284-.003-.285.103.34.103-4.13V7.295c-.072-.3-.362-.566-.482-.844-.068-.104-.08-.239-.08-.873v-.749l-.38-.76c-.414-.826-.587-1.253-.641-1.576-.02-.113-.127-.391-.24-.617C.933 1.39 1.14 1 1.368 1H14.65c.109 0 .357.113.39.267.098.451-.077.506.092.873.213.46.075.573.229.812.092.144.275.46.405.703.13.242.312.563.402.713.182.301.328.702.402 1.105.045.243.193.542.445.897.137.192.522.968.633 1.275.084.232.093.392.104 1.74.006.878.033 1.618.066 1.81.07.414.342 1.2.489 1.414.093.135.111.214.104.445-.007.205.018.344.093.51.3.674.388.922.414 1.173.041.392 0 .545-.257.952-.124.197-.248.447-.276.556-.118.469-.306.775-.618 1.008-.177.131-.324.634-.41.856-.047.122-.149.271-.15.492-.004.427.029.399-.4.399H14.16z" style="fill:#fff"/>
</svg>
