<svg width="20" height="20" xmlns="http://www.w3.org/2000/svg">
 <path d="M9.47 19.353c-2.186-.65-4.043-1.765-5.543-3.33-1.59-1.66-2.682-3.75-3.181-6.086-.151-.708-.163-.87-.165-2.285C.58 6.423.601 6.022.69 5.58c.177-.89.432-1.488.908-2.132.645-.874 1.334-1.392 2.412-1.813C7.856.132 12.21.122 16.101 1.607c.781.299 1.233.58 1.75 1.089.744.733 1.208 1.665 1.434 2.884.173.934.16 3.213-.023 4.174a12.413 12.413 0 0 1-1.865 4.598c-1.337 2.035-3.228 3.587-5.558 4.564-.352.147-1.749.591-1.839.584a9.698 9.698 0 0 1-.53-.147z" fill="#fff" stroke="#000" style="stroke:#000;stroke-width:1;stroke-miterlimit:4;stroke-dasharray:none;stroke-opacity:1"/>
</svg>
