<svg width="26" height="20" overflow="visible" xmlns="http://www.w3.org/2000/svg">
 <path d="m2.115 19.5-.258-.006-.158-.047-.14-.111-.135-.135-.1-.128-.099-.188-.087-.21-.047-.234-.006-.252.03-.193.064-.217.052-.17.51-1.193.473-.901.076-.14.065-.13.04-.187.048-.216.005-.111v-.14l-.005-.112.005-.094-.005-.128.023-.135.006-.134.04-.112.083-.128.093-.147.053-.128.105-.17.082-.193.059-.17.035-.123.017-.105.135-1.124-1.738.006-.105-.058-.088-.053-.064-.03-.065-.07-.047-.087-.046-.123-.012-.135.27-1.603.537-.351-.438-.386.017-.129.006-.094.064-.081.036-.112.029-.134.058-.1.059-.164v-.076l-.263-.064-.328-.018-.187-.046-.182-.053-.076-.006-.023-.04-.024-.054V7.47l.006-.082.03-.076V7.1l.064-.182.134-.228.059-.13.105-.216.065-.146.128-.251.1-.27.134-.269.047-.415L.87 4.9l-.106-.275-.047-.199-.052-.222-.012-.147.082-.193v-.023l-.082-.146-.058-.1-.03-.1-.052-.122v-.088l-.006-.17-.006-.1V2.94l.023-.14.059-.083.017-.046.076-.035.065-.053.076-.158.088-.117.117-.129.105-.117.175-.117.112-.1.193-.011.152-.041.257-.059.158-.052.17-.03.217-.07.035-.04.128.034.135.041.152.03.117.011.322-.011.234-.065.146-.052.14-.07.182-.13.14-.105.381.094.111.006.123-.006.146-.006.135-.035.117-.018.094-.035.07-.07.123-.105.134-.094.24-.012.1-.011.117.006.093.005.17-.07.076-.052.111-.047.123-.106.129-.052L7.007.5H24c.707 0 1.5.793 1.5 1.5v16c0 .707-.793 1.5-1.5 1.5z" clip-rule="evenodd" fill="#fff" fill-rule="evenodd" stroke="#000" stroke-width="1.181" style="stroke:#000;stroke-width:1;stroke-miterlimit:4;stroke-dasharray:none"/>
</svg>
