<svg height="20" width="20" xmlns="http://www.w3.org/2000/svg">
 <path style="color:#000;fill:#000;stroke-linejoin:round;-inkscape-stroke:none" d="M4.135.016A1 1 0 0 0 3 1.006v.656a1 1 0 0 0 .086.139 1 1 0 0 0-1.293.527l-1.72 4.3A1 1 0 0 0 0 7c0 5.998 4.417 11.017 9.656 12.94a1 1 0 0 0 .688 0C15.583 18.016 20 12.997 20 7a1 1 0 0 0-.072-.371l-1.721-4.3a1 1 0 0 0-1.293-.528A1 1 0 0 0 17 1.662v-.656a1 1 0 0 0-1.135-.99l-5.398.736a3.471 3.471 0 0 1-.934 0z"/>
 <path style="fill:#fff" d="M4 1.006v.656l1.336.668a.75.75 0 0 1-.672 1.34L2.721 2.7 1 7c0 5.498 4.123 10.21 9 12 4.877-1.79 9-6.502 9-12l-1.72-4.3-1.944.97a.75.75 0 0 1-.672-1.34L16 1.662v-.656l-5.398.736a4.46 4.46 0 0 1-1.204 0z"/>
</svg>
