<svg width="26" height="20" xml:space="preserve" xmlns:xlink="http://www.w3.org/1999/xlink" xmlns="http://www.w3.org/2000/svg">
 <path d="M16.679 19.055c-1.028-.436-1.988.772-3.848.261-3.515-.965-4.23.411-6.49-.127-1.72-.409-3.286.265-4.764.27-1.392.007-.763-2.863-.6-3.744.7-3.753 1.128-6.331-.403-9.58V.574h14.16c.854 2.069.38 3.675-.255 5.449l10.756.014c-1.055 2.73-.683 5.392-.222 7.946.136.753.34 1.68-.4 2.413-.382.378.216 1.399.748 2.06.56.697-.667 1.26-2.067.562-1.802-.898-4.777.817-6.615.037z" style="fill:#fff;stroke:#000;stroke-width:1;stroke-miterlimit:4;stroke-dasharray:none;stroke-opacity:1" id="a"/>
 <use xlink:href="#a" transform="translate(-.074 -.074)" width="100%" height="100%"/>
</svg>
