<svg width="25" height="20" xmlns="http://www.w3.org/2000/svg">
 <rect width="25" height="20" rx="2" ry="2" style="fill:#ffcd00"/>
 <rect style="fill:#003f87;fill-rule:evenodd" width="23" height="14" x="1" y="5" rx="1" ry="1"/>
 <path d="M1 .75c.042.683.247 1.372.268 2.047.004.13-.134.202-.134.306 0 .117.153.143.153.23V4.5h2.542c.063-.294-.158-.443-.363-.574a.918.918 0 0 1-.44-.804c-.075-.167.178-.26.249-.363v-.364c.095-.096.205-.179.286-.287.253-.337.592-.507.937-.708a.248.248 0 0 1-.23-.057h-.305c-.015-.044-.07-.057-.096-.077-.05.037-.083.085-.134.115A.161.161 0 0 1 3.6 1.4c-.03-.01-.058-.017-.077-.038-.015-.017-.012-.036-.019-.058-.045.01-.097-.007-.115-.038-.023-.041-.052-.07-.076-.077-.075-.022-.017.087-.058.096-.069.016-.064-.09-.095-.134h-.077v-.076s-.123-.064-.19-.077c-.026-.005-.077 0-.077 0-.049 0-.06.082-.096.096-.042.016-.089.013-.134.019-.022-.032-.037-.062-.057-.096-.113-.015-.182-.03-.287-.038-.04-.003-.044-.044-.057-.057L2.109.577c-.014-.06-.083-.07-.153-.076v.248z" style="fill:#003f87;fill-opacity:1;fill-rule:evenodd;stroke:none;stroke-width:.0319955"/>
</svg>
