<svg width="20" height="20" viewBox="0 0 5.292 5.292" xmlns="http://www.w3.org/2000/svg">
 <path d="m2.534 5.037-.024.042-.005.004-.008.013c-.004.004 0 .012.004.012l.094.025v0l.09.033c.004.004.012 0 .012-.008l.008-.112v0l.004-.071v-.004c-.012-.108-.065-.182-.065-.182v0s-.012-.158.045-.253c.02-.042.139-.096.2-.025.065.075.18.187.18.187v0s.13.046.195.067h.004c.07.033.11.075.164.129a.012.012 0 0 0 .016 0l.033-.034a.29.29 0 0 1 .191-.091h.005a.749.749 0 0 0 .367-.075h.004c.094-.07.159-.162.261-.22 0 0 .004 0 .004-.005.094-.02.184-.033.274-.07.008-.004.008-.017 0-.017-.02-.004-.062-.033-.062-.033v0s-.081-.104-.134-.15v-.004c-.074-.042-.229-.067-.229-.067v0s-.09-.091-.04-.153V3.97c.105-.087.248-.1.37-.158h.005c.073-.054.212-.178.212-.178v0l.061-.03c.102-.045.167-.263.237-.347v0a.606.606 0 0 0 .118-.328c0-.008-.012-.013-.016-.008-.07.062-.151.07-.225.004V2.92c-.057-.092-.036-.188.017-.275v0c.053-.079.094-.43.094-.43v0s-.029-.572.159-.664c.008-.004.008-.016 0-.02l-.057-.03h-.004l-.082-.024v0s-.212-.009-.33.041v.004c-.107.059-.31.259-.445.18v-.005c-.078-.079-.033-.17.057-.207.008 0 .008-.013 0-.017-.172-.08-.282.017-.437.108h-.004c-.061.017-.09.013-.139-.03H3.71c-.065-.082-.024-.14.017-.228V1.32c.028-.125.02-.132-.033-.244-.094-.18-.09-.34-.09-.34v0s.033-.041.057-.058c.008-.004.008-.017 0-.017L3.64.657h-.004c-.09 0-.212.063-.212.063v0s-.168.322-.282.268L3.138.984c-.078-.07-.114-.09-.143-.19V.788c-.037-.15-.2-.538-.2-.538v0S2.697.188 2.652.139C2.648.13 2.64.13 2.64.139a.889.889 0 0 1-.143.112v0l-.22.609v0s-.065.07-.122.124c0 0-.005 0-.005.004-.069.033-.106.02-.18-.008V.975c-.068-.05-.22-.31-.22-.31v0S1.674.658 1.633.662c-.008 0-.012.013-.004.017l.025.017v0s.077.094.065.182V.88c-.029.091-.074.107-.118.195-.074.15-.062.178.004.331.02.046.016.075-.004.121v.004c-.102.13-.323-.046-.323-.046v0s-.18-.058-.277-.012c-.008.004-.008.017 0 .017.065.029.102.079.09.153v.005c-.05.12-.184.07-.274.029H.812l-.2-.155V1.52c-.07-.025-.196-.054-.196-.054v0s-.183.02-.277.07c-.008 0-.008.013 0 .017.187.092.155.664.155.664v0s.04.351.094.43h.004c.053.087.073.179.016.275 0 0 0 .004-.004.004-.073.066-.151.058-.22-.004-.009-.005-.017 0-.017.008.004.07.017.129.041.195v.004c.061.13.245.443.245.443v0l.188.104v0l.22.167v0l.326.153v0l-.2.163v0s-.118.062-.17.124c-.042.054-.058.088-.111.1-.008 0-.012.013 0 .017.09.037.18.05.273.07a.663.663 0 0 1 .18.154.415.415 0 0 0 .253.13l.073.012h.004c.115.008.253-.004.327.104a.012.012 0 0 0 .016 0c.078-.108.33-.18.33-.18v0s.152-.103.209-.19c.036-.05.13-.059.13-.059v0s.062.108.041.191v.004c-.012.075 0 .208 0 .208v0s-.008.06-.008.194v0z" fill="#fff" fill-rule="evenodd" stroke="#006747" stroke-linecap="round" stroke-linejoin="round" stroke-width=".265"/>
</svg>
