<svg width="21" height="20" version="1.0" viewBox="0 0 20.972 19.967" xmlns="http://www.w3.org/2000/svg">
 <path d="M10.236 18.971c0-1.176-1.313-2.496-2.496-2.496H2.996c-.947 0-1.997-1.056-1.997-1.998V.996h18.974v13.482c0 .942-1.05 1.998-1.997 1.998h-4.744c-1.183 0-2.496 1.32-2.496 2.496z" style="stroke:#fff;stroke-width:2;stroke-miterlimit:4;stroke-dasharray:none;stroke-opacity:1;fill:none"/>
 <path d="M10.236 18.971c0-1.176-1.313-2.496-2.496-2.496H2.996c-.947 0-1.997-1.056-1.997-1.998V.996h18.974v13.482c0 .942-1.05 1.998-1.997 1.998h-4.744c-1.183 0-2.496 1.32-2.496 2.496z" style="fill:#006747"/>
 <path style="fill:none;stroke:#fff;stroke-width:1;stroke-linecap:butt;stroke-linejoin:miter;stroke-opacity:1" d="M.5 3.492h19.973"/>
</svg>
