<svg width="20" height="22" xmlns="http://www.w3.org/2000/svg">
 <rect width="19" height="21" rx="1.5" ry="1.5" x=".5" y=".5" style="fill:#fff;fill-opacity:1;fill-rule:nonzero;stroke:#000;stroke-width:1;stroke-miterlimit:4;stroke-dasharray:none"/>
 <path style="fill:#000;stroke-width:.0311206" d="M7.855.814.916 7.322l.313.319c.276.303 1.07.954 1.173 1.027.02.014.148.086.246.145.218.13.534.245.823.296.52.093 1.124.242 1.248.309a.62.62 0 0 0 .2.074c.1 0 .419.298.446.416l.022.092h.847l-.023-.088c-.095-.344-.524-.838-.774-.892a4.91 4.91 0 0 1-.414-.133 3.328 3.328 0 0 0-.439-.127c-.37-.108-1.018-.225-1.137-.283-.376-.05-1.238-.8-1.238-.8l-.22-.23 5.853-5.49.316-.295.22.178 9.577 7.666-.734.814.658.455 1.205-1.332L8.377.814h-.522zM6.863 18.5c.038.118.119.274.295.605.058.11.168.394.197.499.056.214.063.317.096.537.04.226.09.494.11.597.02.103.037.242.039.309l.002.139.82-.008 2.437-2.678H9.822L8.42 20.049l-.14.156-.063-.215a3.269 3.269 0 0 1-.084-.445 1.266 1.266 0 0 0-.147-.467 2.596 2.596 0 0 1-.162-.34c-.02-.057-.06-.154-.094-.238h-.867z"/>
</svg>
