<svg width="20" height="20" viewBox="0 0 5.292 5.292" xmlns="http://www.w3.org/2000/svg">
 <path style="fill:#003f87;stroke:none;stroke-width:.251431;stroke-miterlimit:4;stroke-dasharray:none" d="M4.834 1.72H.458c.108.19.158.394.158.612 0 .291-.053.451-.219.665-.125.16-.26.49-.26.736 0 .609.522 1.037 1.27 1.037h.784c.094 0 .18.042.238.114l.217.276.22-.276a.306.306 0 0 1 .237-.114h.786c.746 0 1.27-.428 1.27-1.037 0-.25-.136-.575-.259-.736-.171-.21-.224-.374-.224-.665 0-.22.05-.422.158-.612z"/>
 <path style="fill:#bf2033;stroke:none;stroke-width:.251431;stroke-miterlimit:4;stroke-dasharray:none" d="m1.287.132-1.155 1.2.105.102a1.407 1.407 0 0 1 .22.286h4.377l.034-.056a1.28 1.28 0 0 1 .187-.23l.105-.102L4.005.135 3.9.25a.797.797 0 0 1-.583.27A.835.835 0 0 1 2.75.27L2.646.17l-.101.099a.823.823 0 0 1-.567.248.792.792 0 0 1-.583-.27z"/>
 <path style="fill:none;stroke:#fff;stroke-width:.2646;stroke-linejoin:round;stroke-miterlimit:4;stroke-dasharray:none" d="M.616 2.332c0 .291-.053.451-.219.665-.125.16-.26.49-.26.736 0 .609.522 1.037 1.27 1.037h.784c.094 0 .18.042.238.114l.217.276.22-.276a.306.306 0 0 1 .237-.114h.786c.746 0 1.27-.428 1.27-1.037 0-.25-.136-.575-.259-.736-.171-.21-.224-.374-.224-.665a1.204 1.204 0 0 1 .192-.668 1.28 1.28 0 0 1 .187-.23l.105-.102L4.005.135 3.9.25a.797.797 0 0 1-.583.27A.835.835 0 0 1 2.75.27L2.646.17l-.101.099a.823.823 0 0 1-.567.248.792.792 0 0 1-.583-.27L1.287.132l-1.155 1.2.105.102a1.407 1.407 0 0 1 .22.286c.11.19.16.394.16.612z"/>
 <path style="fill:none;stroke:#fff;stroke-width:.2646px;stroke-linecap:butt;stroke-linejoin:miter;stroke-opacity:1" d="M.437 1.72h4.418"/>
</svg>
