<svg width="28" height="20" xmlns="http://www.w3.org/2000/svg">
 <path d="M26.951 1.515C27.196 1.265 27.476.5 27 .5L.502.504.5 17.5h17.494c.659.053 1.606-.04 2.161.363.51.291 1.031.62 1.605.75.518-.102 1.049-.541 1.586-.244.36.05.559.481.97.348.573-.018.976.561 1.551.452.365-.081.641.113.95.266.299.214.822-.163.649-.525-.206-.426-.076-.774-.224-1.232-.215-.525.374-.926.194-1.445-.034-.361-.085-.665-.07-1.078.011-.34-.109-.613-.309-.939-.175-.285-.185-.628-.172-.964.013-.334.633-.12.615-.752V5c0-.5-.634-.424-.927-.577-.479-.182-.308-.728-.395-1.127-.05-.23-.266-.334-.251-.69.038-.436.696-.724 1.024-1.09z" fill="#fff" stroke="#006747"/>
</svg>
