<svg width="26" height="20" version="1.0" xmlns="http://www.w3.org/2000/svg">
 <path style="stroke:#000;stroke-width:2;stroke-miterlimit:4;stroke-dasharray:none;stroke-opacity:1" d="M4 16H2V6.5L1.093 1h21.88c.445 0 .54.615.384 1.11-.179.568-.38.797-.077.89h1.628v1.342c0 .143-.04.29-.058.389l-.633 3.308c-.062.328-.058.32-.212.724l-1.627 4.266a5.929 5.929 0 0 0-.376 1.76c-.026.588.285 1.204.283 1.753l-.006 1.722c0 .315-.186.736-.463.736H4Z"/>
 <path style="fill:#fff;stroke-width:2;stroke-miterlimit:4;stroke-dasharray:none" d="M4 16H2V6.5L1.093 1h21.88c.445 0 .54.615.384 1.11-.179.568-.38.797-.077.89h1.628v1.342c0 .143-.04.29-.058.389l-.633 3.308c-.062.328-.058.32-.212.724l-1.627 4.266a5.929 5.929 0 0 0-.376 1.76c-.026.588.285 1.204.283 1.753l-.006 1.722c0 .315-.186.736-.463.736H4Z"/>
</svg>
