<svg width="20" height="20" xml:space="preserve" xmlns="http://www.w3.org/2000/svg">
 <rect fill="#fff" x=".5" y=".5" stroke="#666" width="19" height="19" ry="1.5" rx="1.5" style="stroke:#000;stroke-width:1;stroke-miterlimit:4"/>
 <path d="m14.937 18.252-.537-.308c-.057-.032-.056-.036.137-.387.107-.195.2-.36.205-.365.006-.006.215.104.465.245l.454.255.333-.019.333-.018.649-.64.648-.638.037-.735.037-.735-.084-.514-.083-.515-.426-.834-.426-.834-.268-1.483-.268-1.484.189-.976.189-.977-.712-2.423a188.48 188.48 0 0 0-.725-2.436 3.03 3.03 0 0 0-.372-.027l-.36-.015-.115.241-.116.241-3.583-.007-3.583-.007-.112-.277-.112-.277-2.136-.007L2.46 2.29l.015.078.098.55.082.472.393.03c.537.042.546.042.713-.051l.147-.083.74.163c.408.089.768.173.8.187.033.014.512.378 1.065.808l1.006.783 1.096-.278 1.097-.278.564.313c.31.172.57.318.577.324.017.018-.365.727-.392.727-.012 0-.211-.106-.443-.236l-.42-.236-1.13.287c-.62.158-1.14.28-1.155.27-.015-.009-.518-.397-1.118-.863l-1.092-.847-.507-.11c-.28-.061-.526-.11-.549-.11a.517.517 0 0 0-.155.063l-.114.064-.911-.069-.911-.07-.228-1.28-.242-1.352-.013-.072h5.82l.11.276.11.277h6.092l.109-.238.109-.238.94.018.945.02c.002.002.378 1.276.835 2.832l.831 2.828-.193 1.002-.193 1.001.237 1.325.237 1.324.43.843.429.844.103.62.103.62-.045.957-.046.958-.869.861-.868.862-.173.016c-.095.009-.383.023-.64.031l-.468.015z"/>
</svg>
