<svg width="20.99" height="20.002" xmlns="http://www.w3.org/2000/svg">
 <path d="m20.193 3.665-.135.19-.124.195-.121.202-.113.201-.104.208-.096.212-.09.216-.082.22-.073.22-.065.222-.056.228-.05.23-.04.23-.034.23-.022.233-.017.236-.006.233v.234l.011.233.02.233.026.233.033.23.046.23.047.23.065.225.068.225.076.218.081.219.09.213.102.21.107.207.113.202a4.574 4.644 0 0 1 .062 4.638 4.508 4.577 0 0 1-3.943 2.343l-.307.003-.29.014-.293.023-.291.032-.287.043-.287.052-.285.06-.282.07-.281.077-.282.09-.273.091-.276.107-.267.115-.265.124-.262.129-.256.138-.257.147-.247.158-.245.164-.24.17-.236-.17-.245-.164-.247-.158-.254-.146-.259-.138-.26-.13-.267-.124-.27-.115-.273-.106-.274-.092-.278-.09-.282-.077-.284-.07-.285-.06-.287-.052-.29-.043-.287-.032-.285-.023-.315-.014h-.293a4.535 4.604 0 0 1-3.875-6.984l.113-.202.112-.207.068-.21.113-.213.09-.219.067-.218.068-.225.068-.224.045-.23.045-.23.045-.23.022-.234.023-.233v-.7l-.023-.235-.022-.233-.023-.23-.045-.231-.045-.23-.068-.227-.067-.222-.068-.222-.09-.218-.09-.216-.09-.213-.09-.207-.113-.202-.135-.201-.135-.196-.135-.19L3.899.5l.225.191.225.187.248.177.248.17.248.166.225.156.27.148.248.142.268.134.267.126.271.117.27.109.28.104.275.095.282.083.282.078.287.069.284.06.29.05.291.045.29.032.293.029.293.017.293.006h.292l.293-.006.293-.017.293-.03.29-.03.292-.047.288-.049.287-.06.284-.07.285-.077.281-.083.28-.095.275-.104.273-.11.271-.116.265-.126.262-.134.259-.142.253-.148.25-.156.243-.166.245-.17.234-.177.23-.187.225-.191z" fill="#d10f0e" stroke="#fff" stroke-miterlimit="10" stroke-width="1.031" style="fill:#bf2033;stroke:#fff;stroke-width:1;stroke-linejoin:round;stroke-miterlimit:10;stroke-dasharray:none;stroke-opacity:1"/>
</svg>
