<svg width="25" height="20" viewBox="0 0 6.615 5.292" xmlns="http://www.w3.org/2000/svg">
 <path d="M3.307.132c.368 0 .707.117.969.31 1.009.836 1.755 1.874 2.14 3.018.04.1.066.226.066.358 0 .542-.449 1-1.083 1.135-.673.137-1.35.206-2.092.206s-1.418-.07-2.092-.206C.581 4.817.132 4.36.132 3.818c0-.132.027-.258.067-.358C.584 2.316 1.33 1.278 2.339.442c.262-.193.6-.31.968-.31Z" style="display:inline;fill:#fff;fill-opacity:1;stroke:#000;stroke-width:.264583;stroke-linecap:butt;stroke-linejoin:round;stroke-miterlimit:4;stroke-dasharray:none;stroke-opacity:1"/>
</svg>
