<svg width="26" height="20" version="1.0" xmlns="http://www.w3.org/2000/svg">
 <path d="M2.974 18.5s-.984-1.801-.476-3.743c-.15-.523-.715-2.306-.112-4.038.175-.255-.474-1.126-.515-1.449C1.718 8.088.958 1.133.775.5H16.94s-.12.828-.158.979c-.284 1.108.416 1.084.655 1.093.615.026.356-.004.758.08.41.114.332.319 1.275 1.291.88 1.033 1.438 1.073 2.33 1.937 1.525 1.062 3.96 2.785 3.594 3.831-1.035 2.24-1.68 3.73-2.001 5.983-.179 1.435-1.031 2.822-1.98 2.806-.733-.014-.443.32-.72.638a1 1 0 0 1-.78.363c-.359.001-.634-.04-.858-.322-.34-.427.102-.71-.884-.679H2.974" fill="#fff" fill-rule="evenodd" stroke="#000" stroke-linecap="round" stroke-width="1.181" style="stroke:#000;stroke-width:1;stroke-miterlimit:4;stroke-dasharray:none;stroke-opacity:1"/>
</svg>
