<svg width="17" height="24" xmlns="http://www.w3.org/2000/svg">
 <path d="M8.5 0a13.412 13.412 0 0 0-4.857 3.162C1.385 5.468 0 8.578 0 12c0 3.422 1.385 6.532 3.643 8.838 1.345 1.374 3 2.463 4.857 3.162a13.416 13.416 0 0 0 4.857-3.162C15.615 18.532 17 15.422 17 12c0-3.422-1.385-6.532-3.643-8.838A13.415 13.415 0 0 0 8.5 0Z" style="fill:#fff;fill-opacity:1;fill-rule:nonzero;stroke:none;stroke-width:.0476921"/>
 <path d="M8.5 1a12.51 12.51 0 0 1 4.266 2.946c1.778 1.885 2.94 4.317 3.186 7.007.315 3.463-.934 6.71-3.186 9.1A12.487 12.487 0 0 1 8.5 23a12.488 12.488 0 0 1-4.266-2.948c-2.252-2.389-3.501-5.636-3.186-9.099.245-2.69 1.408-5.122 3.186-7.007A12.51 12.51 0 0 1 8.5 1Z" style="fill:#003f87;fill-opacity:1;fill-rule:nonzero;stroke:none;stroke-width:.0489904"/>
</svg>
