<svg width="20" height="20" viewBox="0 0 450 450" xmlns="http://www.w3.org/2000/svg">
 <path d="m124.016 22.502-5.473 8.398-1.755 2.423C106.563 48.285 95.982 67.806 95.982 76.27c0 8.465 2.018 8.419 3.51 11.615 1.234 2.645 1.053 5.116.877 7.938-.179 2.865-1.51 7.683-6.977 10.152-5.467 2.468-20.161 22.345-22.1 27.281-1.941 4.937-21.196 36.585-14.832 44.452 6.248 7.725 10.087 4.795 12.909 4.971 2.821.176 4.805 1.838 4.805 1.838s.877.763.877 3.76c0 2.998-3.44 6.751-4.47 10.528-1.058 3.88-2.483 10.763-.669 13.787 1.618 2.697 1.463 2.443 1.463 5.264 0 2.822-2.711 2.996-2.006 7.228.705 4.232 5.135 3.891 7.604 7.77 2.469 3.88 4.739 4.579 2.8 8.106-1.675 3.043-4.736 15.148-3.678 20.262 1.059 5.114 8.269 7.27 10.738 7.27 2.469 0 9.846-2.066 12.492-.127 2.645 1.94 4.987 1.763 8.648 4.22 4.232 2.84 14.464 1.158 16.377 2.423.22.145.363.31.543.46v8.439c-1.201 3.045-2.537 6.978-2.34 11.112.227 4.76 1.16 11.464 2.34 14.998l5.598-7.227 38.854 4.554-41.36 50.552c-6.065 7.157-14.902 17.542-15.96 18.925-4.157-.894-5.103 1.94-5.39 7.228-1.756 5.587-5.66 11.095-8.48 14.622-2.822 3.527-7.987 8.764-16.754 14.08-1.285.78-11.817 6.07-21.808 6.434v8.314H410.79a16.674 16.674 0 0 0 16.711-16.711V39.21a16.674 16.674 0 0 0-16.711-16.71H124.022Z" stroke="#fff" stroke-width="2.139" style="fill:none;stroke:#fff;stroke-width:45;stroke-miterlimit:4;stroke-dasharray:none"/>
 <path d="m124.016 22.502-5.473 8.398-1.755 2.423C106.563 48.285 95.982 67.806 95.982 76.27c0 8.465 2.018 8.419 3.51 11.615 1.234 2.645 1.053 5.116.877 7.938-.179 2.865-1.51 7.683-6.977 10.152-5.467 2.468-20.161 22.345-22.1 27.281-1.941 4.937-21.196 36.585-14.832 44.452 6.248 7.725 10.087 4.795 12.909 4.971 2.821.176 4.805 1.838 4.805 1.838s.877.763.877 3.76c0 2.998-3.44 6.751-4.47 10.528-1.058 3.88-2.483 10.763-.669 13.787 1.618 2.697 1.463 2.443 1.463 5.264 0 2.822-2.711 2.996-2.006 7.228.705 4.232 5.135 3.891 7.604 7.77 2.469 3.88 4.739 4.579 2.8 8.106-1.675 3.043-4.736 15.148-3.678 20.262 1.059 5.114 8.269 7.27 10.738 7.27 2.469 0 9.846-2.066 12.492-.127 2.645 1.94 4.987 1.763 8.648 4.22 4.232 2.84 14.464 1.158 16.377 2.423.22.145.363.31.543.46v8.439c-1.201 3.045-2.537 6.978-2.34 11.112.227 4.76 1.16 11.464 2.34 14.998l5.598-7.227 38.854 4.554-41.36 50.552c-6.065 7.157-14.902 17.542-15.96 18.925-1.964 1.719-5.014-.668-5.014-.668s.679 4.541-.376 7.896c-1.756 5.587-5.66 11.095-8.48 14.622-2.822 3.527-7.987 8.764-16.754 14.08-1.285.78-11.817 6.07-21.808 6.434v8.314H410.79a16.674 16.674 0 0 0 16.711-16.711V39.21a16.674 16.674 0 0 0-16.711-16.71H124.022Z" style="stroke:none;fill:#006747"/>
 <path d="M225.046 170.157c-.056-5.836-1.444-11.06-4.165-15.672-2.72-4.612-6.438-8.178-11.153-10.698-2.895-1.504-6.737-2.997-11.527-4.48-4.79-1.485-10.685-2.939-17.684-4.363-6.432-1.428-10.86-2.994-13.284-4.698-2.425-1.704-3.577-3.98-3.455-6.83.04-3.424 1.54-6.089 4.5-7.994 2.961-1.904 7.146-2.872 12.554-2.901 4.99 0 9.617.868 13.877 2.605s8.056 4.343 11.39 7.817l14.053-12.633c-5.359-5.514-11.3-9.606-17.824-12.277-6.524-2.672-13.69-4-21.495-3.988-10.909.129-19.647 2.833-26.212 8.113-6.566 5.28-9.935 12.367-10.106 21.257 0 3.34.553 6.53 1.658 9.574 1.105 3.043 2.763 5.8 4.974 8.27 2.122 2.48 4.787 4.507 7.994 6.08 3.208 1.572 7.491 2.967 12.85 4.184l5.053 1.58 4.895 1.105 4.895 1.421a70.444 70.444 0 0 1 6.672 1.934c2.086.724 4.073 1.448 5.961 2.172 2.21 1.112 3.869 2.48 4.974 4.105 1.106 1.625 1.658 3.468 1.658 5.527-.121 4.027-2.286 7.303-6.494 9.83-4.207 2.527-9.727 3.83-16.56 3.908-5.866.02-11.07-1.046-15.614-3.197-4.543-2.152-8.76-5.507-12.653-10.067l-15.16 11.843c5.87 6.859 12.37 11.97 19.501 15.336 7.132 3.366 15.212 5.044 24.24 5.034 4.937-.011 9.707-.622 14.31-1.836 4.602-1.214 8.78-2.97 12.534-5.27 9.921-5.817 14.87-14.08 14.843-24.792zm69.153 60.844V212.37h-79.427V231h30.475v87.167h18.475V231zm71.996 171.268V383.32h-59.848v-28.897h31.581v-19.422h-31.58v-19.58h57.95v-18.947h-77.216v105.802Zm-185.08-101.696a26.535 26.534 0 1 1-53.07 0 26.535 26.534 0 1 1 53.07 0z" fill="#fff" style="stroke-width:.950688"/>
 <path d="M175.163 300.659a20.6 20.6 0 1 1-41.198 0 20.6 20.6 0 1 1 41.198 0z" fill="#fff" style="stroke-width:.950688"/>
 <path d="M172.397 300.659a17.806 17.806 0 1 1-35.613 0 17.806 17.806 0 1 1 35.613 0z" style="stroke-width:.950688;fill:#006747"/>
 <path style="stroke-width:.0422528;fill:#fff" d="m5.504 1.592-.01.385 10.3.023v-.408H5.505zm-.82 1.162c-.02.043-.034.047-.047.092a2.48 2.48 0 0 0-.06.402h11.218v-.469L4.684 2.754z" transform="scale(22.5)"/>
 <path style="stroke-width:.950688;fill:#006747" d="M91.759 364.365c8.8 1.206 10.802 10.76 10.01 16.321-.74 5.184-6.333 12.837-10.283 17.28-3.95 4.445-12.097 9.382-16.54 10.863-4.444 1.482-9.558 2.32-12.776 2.284-2.749-.031-7.093-.58-10.039-2.253-.94-.534-2.874-1.805-4.257-3.355-.495-.787.28-2.453 1.517-2.232 1.306.233 1.651 1.155 3.74 2.177 2.056 1.006 3.615 1.277 5.094 1.224 3.048-.11 3.9-.505 5.224-1.344 1.234-.988-.17-1.458-.9-1.59-2.399-.435-3.49-.375-5.33-.631-1.612-.225-4.033-.632-5.831-2.046-.49-.386-2.05-1.469-2.701-3.125-.452-1.146.041-1.978.041-1.978.8-1.87 2.336-.66 2.67-.011 1.501 2.917 6.988 4.148 10.083 3.474 1.434-.312 2.574-.6 3.366-1.014 1.863-.972 3.831-3.103 1.85-3.973-.98-.431-2.498-.454-5.439-.509-3.267-.061-6.105-.551-7.328-1.908-.671-.745-.479-2.029.044-2.434.826-.824 2.921.196 6.13.196 2.282 0 4.852-.887 6.22-1.667.956-.545 2.497-1.886 3.324-3.584.347-.714.955-1.775 1.292-3.029.337-1.255.683-2.179.92-3.04 1.308-4.767 4.856-8.741 7.121-10.847 3.65-3.157 8.881-4.08 12.78-3.25z"/>
 <path d="m100.729 364.678 35.797-43.026M93.5 358.33l35.267-43.027L144.286 328l-36.326 43.026-7.23-6.348z" fill="#fff" stroke-width="2.792" style="stroke:#006747"/>
</svg>
