<svg width="20" height="22" xmlns="http://www.w3.org/2000/svg">
 <rect style="fill:#003f87;fill-rule:evenodd;stroke:#fff" width="19" height="21" x=".5" y=".5" rx="1.5" ry="1.5"/>
 <g style="fill:#fff;stroke-width:.14389">
  <path style="fill:#fff;fill-opacity:1;fill-rule:nonzero;stroke:none;stroke-width:.14389" d="M7.2 1.9c-2.675.364-5.766.34-7.855-1.63-1.91-1.446-3.231-3.683-3.269-6.113.05-2.023-.902-3.82-1.786-5.57-.677-1.61-1.105-3.388-1.389-5.111h4.575c.23 1.126-1.528 2.27-.027 3.371 1.215 1.476 2.495 2.926 3.413 4.615.988-.883 1.64-1.86 1.868-3.38.215-1.44.704-2.723 1.52-3.547.484-.49 1.002-.552 1.185-1.059H9.23c.006 1.03-1.615 1.525-2.317 2.45-.546 1.624.658 3.206 1.687 4.358.557.529 1.06.776 1.456 1.287-.46-1.585.309-3.824.827-4.894.467-.967.796-2.21.82-3.201h4.41c-.045 1.488-1.536 2.404-1.669 3.825-.326 1.26-.911 3.066.464 3.924 1.438.86 3.22.506 4.812.564 2.329-.067 4.682-.645 6.997-.139.653.312 1.216.944.213 1.26-1.383 1.567-2.402 3.605-4.46 4.411-1.619.64-3.31 1.102-4.848 1.945-1.184.585-2.459 1.197-3.793.71-1.349-.12-2.388.984-3.69 1.17-.979.251-1.944.567-2.938.754Z" transform="matrix(.215 0 0 -.215 7.81 2.447)"/>
 </g>
 <path style="fill:none;stroke:#fff;stroke-width:1px;stroke-linecap:butt;stroke-linejoin:miter;stroke-opacity:1" d="M.5 7.5h19"/>
</svg>
