<svg width="20" height="20" xml:space="preserve" xmlns="http://www.w3.org/2000/svg">
 <path d="M12.729 18.982c-.78-.437-1.51.772-2.922.261-2.67-.965-3.212.41-4.928-.127-1.307-.41-2.495.264-3.617.27-1.057.006-.672-2.88-.455-3.744.927-3.696 1.112-6.294-.307-9.58V.5h10.752c.648 2.07.288 3.675-.194 5.45l8.167.014c-1.083 2.763-.952 5.444-.168 7.946.227.725.258 1.68-.304 2.413-.29.378.164 1.398.568 2.06.426.697-.507 1.26-1.57.562-1.368-.898-3.626.817-5.022.037z" style="fill:#fff;stroke:#000;stroke-width:1;stroke-miterlimit:4;stroke-dasharray:none;stroke-opacity:1"/>
</svg>
