<svg width="25" height="20" version="1.0" viewBox="0 0 24.966 19.967" xmlns="http://www.w3.org/2000/svg">
 <path style="fill:#bf2033;stroke:none;stroke-width:1;stroke-linecap:butt;stroke-linejoin:miter;stroke-opacity:1" d="M.5 4.5c.16-1.267.609-2.731 1.083-3.866 1.694.46 3.474.705 5.31.705 1.939 0 3.814-.273 5.592-.784 1.777.51 3.652.784 5.59.784 1.837 0 3.617-.245 5.31-.705.475 1.135.92 2.599 1.082 3.865Z"/>
 <path style="fill:#003f87;stroke:none;stroke-width:1;stroke-linecap:butt;stroke-linejoin:miter;stroke-opacity:1" d="M24.467 4.5c.038.414-.013.991-.013 1.416 0 6.956-5.225 12.694-11.971 13.513C5.737 18.609.512 12.872.512 5.916c0-.425-.05-1.002-.013-1.417z"/>
 <path style="fill:none;stroke:#fff;stroke-width:1;stroke-miterlimit:4;stroke-dasharray:none" d="M24.454 5.916c0 6.956-5.225 12.694-11.971 13.513C5.737 18.609.512 12.872.512 5.916c0-.425.02-.844.057-1.259C.73 3.391 1.11 1.77 1.583.634c1.694.46 3.474.705 5.31.705 1.939 0 3.814-.273 5.592-.784 1.777.51 3.652.784 5.59.784 1.837 0 3.617-.245 5.31-.705.475 1.135.85 2.757 1.012 4.023.038.415.057.834.057 1.259z"/>
 <path style="fill:none;stroke:#fff;stroke-width:1;stroke-linecap:butt;stroke-linejoin:miter;stroke-opacity:1" d="M.5 4.5h23.967"/>
</svg>
