<svg width="20" height="20" xmlns="http://www.w3.org/2000/svg">
 <rect style="fill:#006747;fill-rule:evenodd;stroke:#fff;stroke-width:1;stroke-linecap:square;stroke-linejoin:round;stroke-miterlimit:4;stroke-dasharray:none" width="19" height="19" x=".5" y=".5" ry="1.5" rx="1.5"/>
 <path d="m7.377 2.468-5.298.027c-.071.497.276.586.384.927-.14.203.096.588-.161.671.452.024.606-.98.83-.338-.493.339.35.163.583.207.489.135.568-.495 1.087-.233.136.446.824.455 1.115.89.317-.284.235.554.715.408-.001.212.904 1.179.492.483.424.025 1.225-.13 1.665-.514.184-.757 1.158-.234 1.456.18.038.067.206.174.304.374.224.119.318.564.685.638-.107.567 1.044.67.91 1.328.387.467-.001 1.15-.08 1.628-.012.07-.462.724.08.867.039.291.463.733.222.795.33.658.428 1.315 1.216 1.452-.109.649.59.974.585 1.655.016.714 1.036.247 1.092 1.041.066.305.682.744.237.884.01.72.82.036 1.058.233.589-.21.226.714.086.578.454.058.227-.557.65-.526.336-.45-.224-1.142.335-1.5.348-.108.13-1.127.187-1.667.173-.727-.134-1.296-.327-1.934-.145-.676-.494-.818-.62-1.47-.558-.716.112-1.478-.665-2.064-.336-.593-.687-1.174-.931-1.817-.207-.573-.228-1.228-.57-1.74.101-.226-.058-.654-.152-.934-.39.058-1.276-.516-1.073.341.207.57-.551.376-.417.045-.862-.005-1.684-.101-2.513-.218l-2.44-.092c-.543.32-.588-.193-.727-.605Zm9.16 14.263c-.392.069-.6.41-.1.062zm-.437-5.653c.47.24.82.956.277 1.216.135.761-.686.045-1.045-.133-.164-.52.663-.69.768-1.083zm-.149 5.867c-.335.104.021.405 0 0zm-.187.08c-.285.204-1.553.287-.63.275.214-.111.494-.06.63-.275zm-1.09.293c-.51.122-.2.355 0 0z" style="fill:#fff;fill-opacity:1;fill-rule:evenodd;stroke:#fff;stroke-width:.15767;stroke-linejoin:round;stroke-miterlimit:4;stroke-dasharray:none;stroke-opacity:1"/>
 <path d="m13.31 7.194 1.634 1.125.054.51 1.124 1.741.429.215.348.75.054 2.545" style="fill-opacity:1;fill-rule:evenodd;stroke:#006747;stroke-width:.5;stroke-miterlimit:4;stroke-dasharray:none;fill:none;stroke-opacity:1"/>
</svg>
