<svg width="20" height="20" version="1.0" xmlns="http://www.w3.org/2000/svg">
 <path d="M2.255 18.5s-.752-1.802-.364-3.744c-.115-.522-.547-2.305-.085-4.037.133-.255-.363-1.126-.395-1.449C1.295 8.088.714 1.132.574.5h12.36s-.091.829-.12.98c-.218 1.107.317 1.083.5 1.093.47.025.272-.004.58.08.313.113.253.318.974 1.29.673 1.034 1.1 1.074 1.782 1.937 1.166 1.062 3.028 2.785 2.748 3.83-.792 2.24-1.285 3.73-1.53 5.984-.137 1.435-.789 2.822-1.514 2.806-.56-.014-.338.32-.55.637-.123.185-.309.361-.596.363-.275.001-.486-.04-.657-.322-.26-.427.078-.708-.676-.678H2.255" fill="#fff" fill-rule="evenodd" stroke="#000" stroke-linecap="round" stroke-width="1.176" style="stroke:#000;stroke-width:1;stroke-miterlimit:4;stroke-dasharray:none;stroke-opacity:1"/>
</svg>
