<svg width="35" height="20" xmlns="http://www.w3.org/2000/svg">
 <path d="M.604 14.754c.048.222.102.446.205.648.089.175.215.335.36.467.169.153.362.283.568.377 1.122.513 2.239 1.046 3.407 1.438 1.229.413 2.496.711 3.766.971 1.364.28 2.742.51 4.128.647 1.473.145 2.956.198 4.437.198 1.498 0 2.998-.052 4.489-.198a40.066 40.066 0 0 0 4.126-.647c1.27-.26 2.538-.558 3.768-.97 1.168-.393 2.287-.92 3.405-1.439.193-.09.358-.234.516-.377.153-.14.311-.286.412-.467.11-.198.16-.426.207-.648a3.66 3.66 0 0 0 .102-.773V6.037c0-.266-.043-.532-.102-.791a2.112 2.112 0 0 0-.207-.575 2.111 2.111 0 0 0-.412-.522 2.045 2.045 0 0 0-.516-.323c-1.125-.526-2.232-1.105-3.405-1.51-1.226-.424-2.497-.71-3.768-.971a40.061 40.061 0 0 0-4.126-.647A46.005 46.005 0 0 0 17.475.5c-1.48 0-2.964.052-4.437.198a40.292 40.292 0 0 0-4.128.647c-1.27.26-2.54.547-3.765.97-1.174.407-2.28.99-3.408 1.51-.198.092-.406.177-.568.324-.156.142-.263.334-.36.521a2.42 2.42 0 0 0-.205.576C.545 5.505.5 5.77.5 6.036v7.945c0 .26.048.52.104.773z" fill="#fff" stroke="#231f20" stroke-width="1.301" style="stroke:#231f20;stroke-width:1;stroke-miterlimit:4;stroke-dasharray:none;stroke-opacity:1"/>
</svg>
