<svg width="20" height="20" version="1.0" xmlns="http://www.w3.org/2000/svg">
 <path d="M329.03 53.667c12.442-.522 24.779-.104 37.221-.209 11.501 1.36 23.106-.209 34.607 1.568 6.483 1.046 13.174 0 19.656 1.464 5.228 1.15 10.769.314 16.101 1.569 37.535 4.286 75.07 11.187 111.25 22.793 11.292 3.972 23.106 7.11 33.143 13.8 16.625 10.874 30.844 25.407 41.091 42.345 8.573 13.488 15.16 28.23 19.028 43.809 1.882 6.063 2.09 12.442 3.346 18.715.941 5.54.522 11.188.627 16.729 0 5.645-1.882 11.083-1.778 16.728-7.423 59.909-28.648 117.21-54.68 171.26-27.499 55.832-61.374 108.84-102.46 155.68-13.174 14.95-26.976 29.484-42.137 42.449-9.096 8.573-18.924 16.1-28.648 23.733-14.637 10.874-32.203 17.46-50.186 19.97-8.259.313-16.415 2.09-24.675.523-17.46-.732-34.816-6.064-49.872-15.056-6.9-3.973-12.964-9.2-19.133-14.219-6.587-4.914-12.546-10.456-18.61-15.892-19.448-16.728-36.594-35.966-53.115-55.518-40.148-49.245-73.605-103.82-99.744-161.54-20.492-44.958-36.384-92.216-44.018-140.94-.627-5.123-1.567-10.247-1.672-15.474-1.777-7.841-1.568-15.997-1.359-23.942 1.464-11.71 3.137-23.42 7.214-34.503 7.005-20.388 18.192-39.208 32.934-54.786 12.128-12.965 26.766-24.152 43.913-29.38 37.848-13.8 77.58-21.434 117.31-26.557 4.914 0 9.723-1.673 14.637-1.568 5.96.209 11.71-1.778 17.774-1.569 6.587.315 13.174-1.463 19.865-1.463 7.423-.419 14.952.418 22.375-.523" fill="#003f87" stroke-linecap="round" stroke-width="31.254" transform="translate(-1.165 -1.208) scale(.03199)" stroke="#fff" stroke-linejoin="round" style="stroke-width:31.25976868;stroke-miterlimit:4;stroke-dasharray:none;fill:#003f87"/>
</svg>
