<svg width="20" height="20" overflow="visible" xml:space="preserve" xmlns="http://www.w3.org/2000/svg">
 <path clip-rule="evenodd" fill="#fff" d="M19 13c0 3.606-5.394 6-9 6-4.5 0-9-2.394-9-6V2c0-.471.529-1 1-1h16c.471 0 1 .529 1 1z" style="stroke:#000;stroke-width:2;stroke-miterlimit:4"/>
 <path fill-rule="evenodd" clip-rule="evenodd" fill="#fff" d="M19 13c0 3.606-5.394 6-9 6-4.5 0-9-2.394-9-6V3.5h18z" style="stroke-width:2;stroke-miterlimit:4"/>
 <path fill-rule="evenodd" clip-rule="evenodd" d="m10.585 5.147 3.928.031.121-.276 1.209.03L16.9 8.58l-.212 1.287.302 1.716.484.95.181.98v1.195l-1.179 1.103h-.725l-.786-.367.228-.486.678.317h.394l.853-.8v-.913l-.158-.855-.484-.952-.332-1.885.206-1.257-.914-3.153-.456-.011-.118.27-4.685-.037-.094-.334H7.292l.125.74.453.037.157-.158 1.19.278 1.345 1.023 1.523-.326.687.369-.253.472-.514-.275-1.572.337-1.45-1.103-.786-.184-.12.122-1.119-.091-.302-1.778h3.808l.06.092z" style="stroke-width:.0404412"/>
 <path fill-rule="evenodd" clip-rule="evenodd" fill="#fff" d="M1 3.5V2c0-.471.529-1 1-1h16c.471 0 1 .529 1 1v1.5z" style="fill:#ffcd00;stroke-width:2;stroke-miterlimit:4"/>
 <path style="stroke:#000;stroke-width:1px;stroke-linecap:butt;stroke-linejoin:miter" d="M.5 3.5h19"/>
</svg>
