<svg width="25" height="20" version="1.0" xmlns="http://www.w3.org/2000/svg">
 <path d="M.946 1.044h6.68c.519.255 1.128.455 1.795.61.666.155 1.44-.201 2.185-.127.373.038.674.254 1.053.26.38.006.839-.198 1.217-.19.757.016.985.594 2.15.51.698-.05 1.204-.352 1.896-.554.692-.201 1.573-.274 2.305-.267 1.4.013 2.8-.548 4.2-.786l.073 7.753c-.738.388-.185 1.04-.234 1.644-.027.33-.084.673-.407.849-.321.175-.29.591-.14 1.068.201.632-.13 1.265-.289 1.885a3.08 3.08 0 0 1-1.12 1.707c-.623.495-1.554 1.33-2.655 1.46-1.421.169-1.896.68-2.66 1.33-.351.301-.515.386-1.338.443-.458.032-.34.31-1.361.357-1.01.047-1.945.505-2.546.504-1.683-.002-3.064-1.756-5.283-2-1.107-.12-2.132-.505-3.136-.924-.505-.21-.988-.628-1.545-.703-.671-.091-.816-.519-1.285-.699V1.417c-.016-.253.187-.377.445-.373z" fill="#fff" stroke="#000" stroke-linecap="round" stroke-linejoin="round" stroke-width="1.254" style="stroke:#000;stroke-width:1;stroke-miterlimit:4;stroke-dasharray:none;stroke-opacity:1"/>
</svg>
