<svg width="20" height="20" xmlns="http://www.w3.org/2000/svg">
 <path d="M10.705 1.53V1.53l-.029-.005-.028-.006-.028-.006-.029-.007-.027-.008-.027-.009-.027-.01-.027-.011-.026-.011-.025-.013-.025-.014-.025-.013-.024-.015-.024-.015-.024-.016-.023-.017-.023-.018-.021-.018-.022-.018-.02-.02-.02-.02-.039-.043-.02-.021-.017-.023-.017-.023-.017-.023-.015-.024-.029-.05-.013-.025L10 1.001l-.027.052-.014.025-.016.026-.015.024-.017.022-.017.024-.018.022-.018.023-.019.021-.02.02-.02.02-.021.02-.022.02-.022.017-.046.034-.024.017-.024.014-.024.015-.025.014-.025.013-.026.012-.027.012-.026.01-.026.01-.028.01-.055.014-.029.007-.028.005-.03.005-.083.017-.04.012-.04.013-.04.014-.038.017-.037.018-.036.02-.036.02-.035.022-.032.024-.033.026-.03.027-.03.027-.03.03-.027.03-.025.031-.025.034-.023.033-.022.035-.02.036-.02.036-.016.037-.015.039-.015.04-.012.039-.01.04-.008.041-.007.042-.005.042-.003.043v.043-.001l-.014-.032-.03-.063-.019-.03-.018-.028-.019-.03-.021-.027-.02-.027-.024-.026-.023-.026-.024-.024-.026-.022-.025-.023-.027-.022-.028-.02-.027-.02-.03-.018L8.096 2l-.03-.017-.03-.015-.032-.015-.031-.013-.033-.012-.032-.01-.034-.01-.033-.008-.034-.007-.034-.006-.035-.005-.035-.003-.035-.003h-.06l-.023.002h-.026l-.024.003-.025.004-.024.003-.025.004-.024.005-.025.006-.024.006-.024.006-.023.007-.024.008-.021.009-.023.008-.021.01-.018.006-.02.005-.019.003-.02.001h-.018l-.02-.003-.017-.005-.034-.014-.015-.01-.015-.01-.013-.013-.012-.013-.01-.014-.01-.016-.007-.017-.008-.016-.003-.018-.004-.018-.001-.02.001-.019.004-.019.003-.018.008-.017.007-.016.01-.015.01-.014.012-.013.013-.013.015-.011.015-.009.017-.008.017-.006.018-.005.019-.002.018-.001h.014-.027l-.031-.003-.063-.002-.074.002-.073.005-.073.01-.072.013-.07.015-.069.02-.067.023-.066.027-.065.029-.062.032-.06.035-.06.038-.057.04-.055.044-.053.045-.05.048-.048.05-.045.053-.045.055-.04.058-.038.059-.034.06-.033.063-.03.065-.025.065-.023.068-.02.069-.015.07-.014.071-.01.073-.005.073-.001.076v.035l.002.036.002.034.008.072.006.036.006.036.007.035.007.036.008.034.01.035.01.034.01.035.011.033.024.065-.034-.031-.034-.03-.036-.03-.039-.025-.04-.024-.039-.023-.042-.02-.042-.02-.043-.016-.044-.015-.044-.012-.045-.01L5.2 3.34l-.046-.006-.045-.004H5.024l-.037.003-.037.003-.036.006-.037.008-.036.008-.036.01-.036.01-.07.027-.067.03-.032.018-.032.019-.032.019-.03.02-.03.02-.03.02-.033.019-.032.017-.067.03-.035.014-.035.013-.036.011-.036.01-.036.008-.037.007-.036.005-.037.005-.037.002h-.077l-.04-.003-.04-.005-.04-.006-.08-.017-.038-.01-.038-.013.012.038.01.039.017.079.006.04.005.04.004.04v.077l-.003.038-.003.037-.006.036-.006.037-.009.036-.01.036-.01.036-.012.034-.014.035-.015.034-.016.033-.017.032-.02.033-.019.031-.021.03-.02.03-.02.031-.02.032-.017.033-.016.033-.015.034-.014.034-.012.035-.011.036-.01.036-.008.036-.006.037-.006.036-.004.037-.002.037v.038l.001.045.004.047.005.045.008.046.01.044.013.044.014.045.017.043.02.042.02.04.022.041.025.039.027.038.027.036.03.035.031.032-.042-.016-.043-.013-.044-.012-.045-.01-.046-.008-.047-.006-.045-.003-.046-.002h-.036l-.036.003-.036.003-.034.005-.035.006-.035.007-.035.01-.033.01-.034.01-.032.014-.032.013-.033.014-.03.017-.03.017-.03.018-.03.019-.03.02-.027.022-.053.045-.025.024-.024.025-.024.027-.022.027-.02.028-.022.028-.02.03-.017.03-.017.031-.016.032-.014.032-.015.034-.004.013-.008.013-.007.012-.008.01-.01.011-.01.01-.01.01-.01.008-.013.007-.012.006-.013.006-.013.005-.013.004-.015.002-.014.002h-.014l-.02-.001-.018-.002-.018-.005-.016-.006-.017-.009-.016-.01-.014-.01-.013-.012-.012-.013-.01-.015-.01-.015-.009-.016-.006-.018-.005-.018-.002-.018-.001-.019.001-.02.004-.02.006-.02.007-.019.01-.018.011-.017.013-.015.015-.015-.03.027-.029.026-.029.028-.027.027-.027.029-.025.03-.025.031-.025.03-.023.032-.022.033-.022.032-.02.034-.02.034-.02.035-.018.035-.017.035-.015.037-.016.036-.014.037-.013.037-.012.037-.012.038-.02.077-.008.038-.007.04-.006.038-.005.04-.003.04-.003.039-.002.04v.04l.001.054.002.055.006.054.006.054.01.053.01.052.014.052.014.051.017.052.02.049.02.05.021.048.024.048.025.047.027.045.028.045.03.044.033.042.033.042.035.04.036.038.037.038.04.036.04.035.041.033.043.031.044.03.046.029.047.027.048.026.047.022.05.022-.042.001-.042.003-.043.004-.041.007-.042.009-.04.01-.04.013-.039.013-.038.015-.038.017-.036.02-.036.02-.035.021-.033.023-.033.025-.032.025-.03.028-.03.029-.028.03-.026.03-.025.032-.024.033-.023.035-.021.035-.02.037-.017.037-.016.038-.016.04-.012.04-.012.04-.008.042-.007.042-.005.029-.006.028-.006.028-.007.029-.008.027-.01.027-.01.027-.01.026-.012.027-.012.025-.014.025-.013.025-.015.024-.015.024-.016.024-.017.023-.018.023-.018.021-.02.022-.018.02-.02.02-.021.02-.022.019-.021.018-.023.018-.023.018-.023.015-.024.016-.025.015-.025.015-.025.013L1 10l.026.013.026.014.025.014.024.016.026.015.022.016.024.018.022.018.023.018.021.019.02.02.021.02.02.02.017.022.02.023.016.022.017.024.015.024.016.024.014.024.015.025.013.025.012.026.012.027.01.026.01.026.009.028.008.027.007.028.006.029.006.028.005.03.007.041.009.042.011.04.012.04.016.04.016.038.018.037.019.036.021.036.023.035.024.032.025.033.027.03.027.03.03.03.03.027.032.025.033.025.033.023.035.022.036.02.036.019.037.017.038.015.04.015.04.012.04.01.04.008.043.007.042.005.043.003h.043l-.033.014-.03.015-.032.016-.06.036-.027.019-.029.021-.026.02-.027.023-.025.024-.024.024-.023.026-.022.025-.022.027-.02.028-.02.027-.019.03-.016.029-.017.03-.016.03-.014.032-.012.031-.012.033-.01.032-.01.034-.009.033-.007.034-.006.034-.005.035-.003.035-.002.035V12.417l.003.025.002.024.003.025.003.024.005.025.005.024.005.025.006.024.007.024.007.023.007.024.008.022.009.022.01.022.005.018.005.019.004.019.001.02-.001.018-.003.02-.004.017-.006.017-.009.017-.01.016-.01.014-.012.013-.013.012-.015.01-.015.01-.034.015-.018.003-.018.004-.019.001-.019-.001-.02-.004-.017-.003-.017-.007-.016-.008-.015-.01-.014-.01-.014-.012-.013-.013-.01-.015-.009-.015-.008-.017-.006-.017-.005-.018-.002-.019-.002-.018v-.008l.002-.006-.002.027-.002.03-.002.063.002.074.005.073.01.073.012.072.016.07.02.069.023.067.026.066.03.065.032.062.034.06.039.06.04.057.044.055.045.053.048.05.05.048.053.047.055.043.058.04.058.038.061.034.063.033.064.03.066.025.067.023.07.02.07.016.071.013.073.01.073.005.076.001h.034l.036-.002.035-.002.072-.007.036-.006.036-.006.035-.008.036-.007.034-.008.035-.01.034-.01.034-.01.034-.01.032-.013.033-.012-.032.034-.03.035-.028.037-.025.037-.026.04-.022.039-.02.042-.02.042-.017.043-.014.044-.012.044-.01.045-.01.045-.004.046-.004.046V14.975l.002.037.004.037.005.036.007.037.009.036.01.036.01.036.013.035.014.035.03.067.018.032.019.032.019.032.02.03.02.03.02.03.019.033.017.032.016.034.015.033.013.035.013.035.01.036.01.036.009.036.007.037.005.036.005.037.002.037v.078l-.004.04-.004.04-.006.04-.009.04-.01.039-.01.04-.012.036.037-.01.038-.011.04-.008.04-.009.041-.006.041-.004.04-.004h.077l.038.002.037.004.036.006.037.006.036.008.036.01.036.01.034.012.035.015.034.014.033.016.032.018.033.019.031.019.03.022.03.02.031.02.032.018.033.018.033.016.034.014.034.015.035.011.036.011.036.01.036.008.037.006.036.006.037.004.037.002.038.001h.046l.046-.005.045-.006.046-.008.044-.01.044-.013.045-.014.043-.017.042-.019.04-.02.041-.023.039-.024.038-.026.036-.03.035-.028.032-.032-.016.042-.013.044-.012.044-.01.046-.008.045-.006.047-.003.046-.002.045v.036l.003.036.003.036.005.035.006.034.007.035.01.035.01.033.01.034.013.032.014.033.015.032.016.031.017.03.018.03.019.03.02.029.022.027.022.027.023.026.024.025.025.024.027.024.027.023.028.021.028.02.03.02.03.018.031.017.032.015.032.016.033.013.014.006.013.006.012.007.01.008.011.01.01.01.01.01.008.01.007.013.006.012.006.013.005.013.003.013.003.015.002.014v.014l-.001.02-.002.018-.005.018-.006.016-.009.017-.01.016-.01.014-.012.013-.013.012-.015.01-.015.01-.016.009-.018.006-.018.005-.018.002-.019.001-.02-.001-.02-.004-.02-.006-.019-.007-.018-.01-.017-.011-.015-.014-.015-.014.027.03.026.029.028.028.027.028.029.026.03.025.031.026.03.025.032.022.033.023.032.022.034.02.034.02.035.02.035.018.036.016.036.016.036.016.037.014.037.013.037.012.038.012.077.02.038.008.04.007.038.006.04.004.04.004.039.002.04.003h.04l.055-.002.054-.002.108-.012.053-.01.052-.01.052-.013.051-.015.052-.017.05-.019.05-.02.047-.022.048-.024.047-.025.045-.026.045-.029.044-.031.042-.031.042-.034.04-.035.039-.035.037-.038.036-.04.034-.04.034-.04.031-.044.031-.044.028-.046.027-.046.025-.048.023-.05.022-.05.001.044.004.043.004.042.006.041.009.041.01.04.013.04.013.04.015.038.017.037.02.036.02.036.021.035.023.034.025.033.025.031.028.03.028.03.03.028.032.026.032.026.032.024.035.022.036.021.036.02.037.018.038.016.04.015.04.013.04.01.042.01.042.008.029.004.028.006.028.006.029.007.027.009.027.008.027.01.027.011.026.011.025.014.025.013.025.013.024.015.024.015.024.017.023.016.023.018.043.036.02.02.02.02.02.021.019.022.019.021.017.023.018.023.015.023.017.024.015.025.014.025.013.025.013.026.013-.026.014-.026.014-.025.016-.024.015-.026.017-.022.017-.024.018-.022.018-.023.019-.021.04-.04.02-.02.022-.02.023-.017.046-.034.024-.016.048-.03.025-.014.025-.013.026-.012.027-.012.026-.01.026-.01.028-.008.027-.009.03-.007.027-.006.028-.006.03-.005.041-.007.042-.01.04-.01.04-.013.04-.015.038-.017.037-.018.037-.019.035-.021.035-.022.033-.024.032-.026.03-.027.03-.027.03-.03.027-.03.025-.031.025-.034.023-.033.022-.035.02-.036.019-.036.017-.037.015-.038.014-.04.012-.04.01-.04.009-.04.007-.043.005-.042.002-.042.001-.043.013.033.016.03.016.032.018.03.017.029.02.028.021.028.022.028.021.026.024.025.024.024.05.045.028.022.028.02.027.02.029.019.03.016.03.017.031.016.031.014.031.012.033.012.032.01.033.01.034.009.034.007.034.006.035.005.035.003.035.002h.083l.026-.003.024-.002.025-.002.025-.004.024-.005.025-.005.024-.004.024-.006.024-.007.023-.007.024-.008.022-.008.022-.01.021-.008.018-.007.02-.005.019-.004h.04l.017.004.018.004.034.014.015.01.015.01.013.012.012.013.01.015.01.015.015.034.007.036.001.02-.001.018-.004.02-.003.017-.015.034-.01.016-.01.014-.012.013-.013.012-.015.01-.015.01-.017.008-.017.006-.018.004-.018.004h-.033l.027.001.03.002.063.003.074-.002.074-.005.072-.01.072-.013.07-.015.069-.02.067-.024.066-.026.065-.029.062-.032.06-.035.06-.038.057-.04.055-.044.053-.045.05-.048.048-.05.047-.053.043-.055.04-.058.038-.059.035-.06.032-.063.03-.065.025-.066.024-.067.02-.07.016-.069.012-.071.01-.074.005-.073.002-.075v-.035l-.002-.036-.003-.034-.003-.036-.004-.036-.006-.036-.006-.036-.007-.035-.008-.036-.008-.035-.01-.034-.01-.035-.01-.034-.01-.033-.013-.033-.012-.032.034.031.035.03.037.028.037.026.04.024.039.023.042.02.042.02.043.016.044.015.044.011.045.011.045.009.046.006.047.003.045.001h.037l.037-.003.037-.004.036-.006.038-.007.035-.008.036-.01.036-.01.035-.012.035-.015.033-.014.034-.017.032-.017.033-.018.03-.019.06-.04.032-.021.032-.018.032-.017.034-.016.033-.015.035-.013.036-.013.035-.01.036-.01.036-.009.037-.007.037-.005.036-.005.037-.002h.078l.04.004.04.004.04.006.04.009.039.008.04.011.036.01-.01-.036-.011-.04-.009-.04-.008-.04-.006-.039-.005-.04-.003-.04v-.078l.002-.037.004-.037.006-.036.006-.037.008-.036.01-.036.01-.036.012-.034.015-.035.014-.034.017-.033.017-.033.019-.032.019-.031.021-.03.02-.03.021-.031.018-.032.018-.033.016-.033.015-.034.014-.035.011-.034.011-.036.01-.036.008-.036.007-.037.005-.036.004-.037.002-.037.001-.038v-.045l-.004-.047-.006-.045-.009-.046-.01-.044-.012-.044-.015-.045-.017-.043-.019-.042-.02-.04-.023-.04-.024-.04-.026-.037-.029-.036-.029-.034-.032-.034.042.017.044.013.045.012.045.01.046.008.046.006.046.003.045.001h.036l.037-.002.035-.004.036-.004.035-.006.035-.008.034-.01.034-.009.033-.01.033-.014.032-.013.031-.015.031-.016.031-.017.03-.018.03-.019.027-.02.027-.022.028-.022.025-.023.025-.024.025-.025.023-.027.023-.027.021-.028.02-.028.02-.03.018-.03.017-.032.016-.032.015-.032.014-.034.005-.013.007-.012.007-.012.009-.012.01-.01.009-.01.01-.008.011-.009.012-.008.012-.006.014-.006.013-.005.013-.004.014-.002.015-.002h.034l.017.003.018.005.017.006.017.008.015.01.015.01.013.013.012.013.01.014.01.016.009.015.006.018.004.018.003.018v.04l-.004.02-.006.02-.007.017-.01.018-.012.017-.013.016-.014.013.03-.025.029-.028.028-.027.028-.028.026-.03.025-.029.026-.03.025-.032.022-.031.023-.032.022-.033.02-.033.02-.034.02-.035.018-.034.016-.036.017-.035.015-.037.014-.036.013-.037.012-.037.012-.039.01-.037.01-.038.008-.04.007-.038.006-.04.005-.038.003-.04.003-.039.002-.04v-.04l-.001-.055-.003-.054-.004-.054-.008-.054-.01-.053-.01-.052-.013-.052-.015-.051-.016-.052-.02-.05-.02-.05-.021-.047-.024-.048-.025-.047-.027-.045-.029-.045-.03-.044-.032-.042-.033-.042-.035-.04-.036-.039-.037-.037-.04-.036-.04-.035-.041-.033-.043-.031-.045-.031-.045-.028-.047-.028-.048-.025-.049-.022-.05-.022.043-.001.043-.004.042-.005.042-.006.04-.008.041-.01.04-.013.04-.013.038-.015.037-.017.036-.02.036-.02.034-.021.034-.023.034-.025.03-.025.03-.028.03-.029.028-.03.028-.03.025-.033.024-.032.022-.035.02-.036.02-.036.018-.037.017-.038.014-.04.013-.04.012-.04.009-.042.008-.042.005-.029.005-.029.007-.027.007-.029.009-.027.008-.027.01-.027.011-.027.011-.026.013-.025.014-.025.013-.025.014-.024.016-.024.017-.024.033-.046.02-.021.017-.022.02-.02.02-.02.021-.02.022-.019.021-.02.023-.016.023-.018.023-.016.024-.016.025-.015.025-.014.025-.013.026-.013-.052-.027-.025-.014-.026-.016-.024-.015-.022-.017-.024-.017-.022-.018-.023-.018-.021-.019-.04-.04-.02-.021-.02-.022-.017-.022-.017-.023-.017-.023-.016-.024-.015-.024-.015-.024-.014-.025-.013-.025-.012-.026-.012-.027-.01-.026-.01-.026-.01-.028-.007-.028-.007-.028-.007-.028-.01-.057-.017-.084-.012-.04-.013-.04-.014-.04-.017-.038-.018-.037-.02-.037-.02-.035-.022-.035-.024-.033-.025-.032-.028-.03-.027-.03-.03-.03-.03-.027-.031-.026-.034-.024-.034-.023-.034-.023-.036-.019-.036-.02-.037-.016-.039-.015-.04-.015-.039-.012-.081-.019-.042-.006-.042-.005-.043-.003-.043-.002h0l.032-.014.062-.031.03-.018.029-.018.029-.02.027-.02.028-.021.025-.023.025-.024.024-.024.024-.025.023-.025.021-.026.02-.028.02-.028.02-.028.033-.06.015-.03.015-.031.013-.033.012-.032.01-.032.01-.033.008-.033.008-.035.006-.033.004-.035.004-.035.002-.035V7.585l-.002-.025-.002-.024-.004-.025-.003-.025-.004-.024-.005-.025-.006-.024-.006-.024-.007-.024-.007-.023-.007-.024-.009-.022-.008-.022-.01-.022-.007-.018-.005-.019-.003-.019-.002-.02.002-.02.002-.017.005-.018.007-.017.007-.017.01-.015.01-.015.013-.013.013-.012.014-.01.016-.01.017-.007.016-.008.018-.003.018-.004.02-.001.019.001.019.004.018.003.016.008.017.007.015.01.014.01.014.012.012.013.011.015.009.015.008.017.006.017.005.018.003.018v.033l.001-.029.003-.03.002-.062-.002-.074-.005-.073-.01-.073-.013-.072-.015-.07-.02-.069-.023-.067-.027-.066-.028-.065-.033-.062-.035-.061-.038-.059-.04-.057-.044-.055-.045-.053-.048-.05-.05-.048-.053-.046-.055-.044-.058-.04-.058-.038-.062-.035-.062-.032-.065-.03-.065-.025-.068-.023-.069-.02-.07-.016-.071-.013-.073-.01-.073-.006h-.111l-.036.002-.034.002-.036.004-.036.003-.036.006-.036.006-.035.007-.036.008-.034.008-.07.02-.033.01-.034.01-.032.013-.033.012.031-.034.03-.035.028-.036.026-.038.024-.04.023-.039.02-.042.02-.042.016-.043.015-.044.012-.045.01-.044.009-.045.006-.046.003-.047.002-.045-.002-.037-.002-.037-.004-.038-.006-.035-.007-.038-.008-.036-.01-.035-.01-.036-.013-.035-.014-.035-.014-.033-.017-.034-.017-.032-.018-.033-.019-.03-.04-.06-.021-.032-.018-.032-.017-.033-.017-.033-.014-.034-.013-.034-.013-.035-.011-.036-.01-.036-.008-.036-.007-.037-.005-.036-.005-.037-.002-.037v-.078l.003-.04.005-.04.006-.04.008-.04.01-.039.01-.038.013-.039-.037.012-.04.011-.04.009-.039.008-.04.006-.042.005-.04.003h-.078l-.037-.002-.036-.004-.037-.006-.037-.006-.036-.008-.036-.01-.035-.01-.036-.012-.035-.015-.033-.014-.034-.017-.032-.017-.032-.019-.032-.019-.06-.043-.03-.02-.033-.018-.032-.017-.034-.017-.033-.014-.035-.015-.035-.012-.036-.01-.036-.01-.036-.008-.037-.006-.036-.006-.037-.004-.037-.002-.037-.002-.046.002-.046.003-.046.006-.045.009-.045.01-.044.012-.044.015-.043.016-.042.02-.041.02-.04.023-.04.025-.036.025-.036.029-.035.03-.033.03.016-.041.014-.043.011-.044.011-.046.007-.045.006-.047.004-.046.001-.045V3.21l-.002-.036-.004-.036-.005-.035-.006-.035-.007-.034-.01-.035-.009-.034-.01-.033-.014-.032-.013-.033-.016-.032-.015-.031-.017-.03-.018-.03-.02-.03-.02-.029-.021-.027-.023-.027-.023-.026-.024-.025-.025-.024-.026-.024-.028-.023-.027-.02-.029-.02-.03-.021-.03-.018-.03-.017-.033-.015-.033-.015-.033-.014-.013-.005-.012-.007-.012-.007-.012-.009-.011-.01-.01-.009-.016-.021-.009-.012-.006-.012-.006-.013-.005-.014-.003-.013-.003-.014v-.015l-.002-.014.001-.02.003-.017.004-.018.006-.017.009-.017.01-.015.01-.015.012-.013.013-.012.015-.01.015-.01.016-.008.018-.006.018-.005.018-.003h.039l.02.004.02.006.02.007.017.01.017.012.015.013.016.014-.026-.03-.027-.028-.027-.03-.03-.027-.028-.026-.029-.025-.062-.05-.031-.023-.032-.023-.034-.022-.033-.02-.034-.02-.035-.02-.035-.017-.036-.017-.036-.017-.036-.014-.037-.015-.037-.013-.037-.012-.038-.012-.077-.019-.038-.008-.04-.007-.038-.006-.04-.005-.04-.004-.039-.002-.04-.003h-.04l-.054.002-.055.002-.054.005-.054.007-.053.01-.052.01-.052.014-.051.014-.052.017-.049.019-.05.02-.048.022-.048.024-.047.025-.045.026-.045.029-.044.03-.042.032-.042.034-.04.035-.038.035-.038.038-.036.04-.035.04-.033.04-.031.044-.03.044-.03.045-.027.047-.025.048-.023.05-.021.05-.001-.044-.003-.043-.004-.042-.008-.042-.008-.04-.01-.041-.013-.04-.013-.039-.016-.038-.016-.038-.02-.035-.02-.036-.021-.035-.023-.034-.025-.033-.025-.031-.028-.03-.029-.03-.03-.028-.03-.026-.032-.025-.034-.024-.034-.023-.035-.022-.037-.019-.037-.018-.039-.016-.04-.015-.039-.013-.04-.01-.042-.01-.042-.008z" stroke-linecap="round" stroke-linejoin="round" style="fill:none;stroke:#000;stroke-width:2;stroke-miterlimit:4;stroke-dasharray:none"/>
 <path d="M10.705 1.53V1.53l-.029-.005-.028-.006-.028-.006-.029-.007-.027-.008-.027-.009-.027-.01-.027-.011-.026-.011-.025-.013-.025-.014-.025-.013-.024-.015-.024-.015-.024-.016-.023-.017-.023-.018-.021-.018-.022-.018-.02-.02-.02-.02-.039-.043-.02-.021-.017-.023-.017-.023-.017-.023-.015-.024-.029-.05-.013-.025L10 1.001l-.027.052-.014.025-.016.026-.015.024-.017.022-.017.024-.018.022-.018.023-.019.021-.02.02-.02.02-.021.02-.022.02-.022.017-.046.034-.024.017-.024.014-.024.015-.025.014-.025.013-.026.012-.027.012-.026.01-.026.01-.028.01-.055.014-.029.007-.028.005-.03.005-.083.017-.04.012-.04.013-.04.014-.038.017-.037.018-.036.02-.036.02-.035.022-.032.024-.033.026-.03.027-.03.027-.03.03-.027.03-.025.031-.025.034-.023.033-.022.035-.02.036-.02.036-.016.037-.015.039-.015.04-.012.039-.01.04-.008.041-.007.042-.005.042-.003.043v.043-.001l-.014-.032-.03-.063-.019-.03-.018-.028-.019-.03-.021-.027-.02-.027-.024-.026-.023-.026-.024-.024-.026-.022-.025-.023-.027-.022-.028-.02-.027-.02-.03-.018L8.096 2l-.03-.017-.03-.015-.032-.015-.031-.013-.033-.012-.032-.01-.034-.01-.033-.008-.034-.007-.034-.006-.035-.005-.035-.003-.035-.003h-.06l-.023.002h-.026l-.024.003-.025.004-.024.003-.025.004-.024.005-.025.006-.024.006-.024.006-.023.007-.024.008-.021.009-.023.008-.021.01-.018.006-.02.005-.019.003-.02.001h-.018l-.02-.003-.017-.005-.034-.014-.015-.01-.015-.01-.013-.013-.012-.013-.01-.014-.01-.016-.007-.017-.008-.016-.003-.018-.004-.018-.001-.02.001-.019.004-.019.003-.018.008-.017.007-.016.01-.015.01-.014.012-.013.013-.013.015-.011.015-.009.017-.008.017-.006.018-.005.019-.002.018-.001h.014-.027l-.031-.003-.063-.002-.074.002-.073.005-.073.01-.072.013-.07.015-.069.02-.067.023-.066.027-.065.029-.062.032-.06.035-.06.038-.057.04-.055.044-.053.045-.05.048-.048.05-.045.053-.045.055-.04.058-.038.059-.034.06-.033.063-.03.065-.025.065-.023.068-.02.069-.015.07-.014.071-.01.073-.005.073-.001.076v.035l.002.036.002.034.008.072.006.036.006.036.007.035.007.036.008.034.01.035.01.034.01.035.011.033.024.065-.034-.031-.034-.03-.036-.03-.039-.025-.04-.024-.039-.023-.042-.02-.042-.02-.043-.016-.044-.015-.044-.012-.045-.01L5.2 3.34l-.046-.006-.045-.004H5.024l-.037.003-.037.003-.036.006-.037.008-.036.008-.036.01-.036.01-.07.027-.067.03-.032.018-.032.019-.032.019-.03.02-.03.02-.03.02-.033.019-.032.017-.067.03-.035.014-.035.013-.036.011-.036.01-.036.008-.037.007-.036.005-.037.005-.037.002h-.077l-.04-.003-.04-.005-.04-.006-.08-.017-.038-.01-.038-.013.012.038.01.039.017.079.006.04.005.04.004.04v.077l-.003.038-.003.037-.006.036-.006.037-.009.036-.01.036-.01.036-.012.034-.014.035-.015.034-.016.033-.017.032-.02.033-.019.031-.021.03-.02.03-.02.031-.02.032-.017.033-.016.033-.015.034-.014.034-.012.035-.011.036-.01.036-.008.036-.006.037-.006.036-.004.037-.002.037v.038l.001.045.004.047.005.045.008.046.01.044.013.044.014.045.017.043.02.042.02.04.022.041.025.039.027.038.027.036.03.035.031.032-.042-.016-.043-.013-.044-.012-.045-.01-.046-.008-.047-.006-.045-.003-.046-.002h-.036l-.036.003-.036.003-.034.005-.035.006-.035.007-.035.01-.033.01-.034.01-.032.014-.032.013-.033.014-.03.017-.03.017-.03.018-.03.019-.03.02-.027.022-.053.045-.025.024-.024.025-.024.027-.022.027-.02.028-.022.028-.02.03-.017.03-.017.031-.016.032-.014.032-.015.034-.004.013-.008.013-.007.012-.008.01-.01.011-.01.01-.01.01-.01.008-.013.007-.012.006-.013.006-.013.005-.013.004-.015.002-.014.002h-.014l-.02-.001-.018-.002-.018-.005-.016-.006-.017-.009-.016-.01-.014-.01-.013-.012-.012-.013-.01-.015-.01-.015-.009-.016-.006-.018-.005-.018-.002-.018-.001-.019.001-.02.004-.02.006-.02.007-.019.01-.018.011-.017.013-.015.015-.015-.03.027-.029.026-.029.028-.027.027-.027.029-.025.03-.025.031-.025.03-.023.032-.022.033-.022.032-.02.034-.02.034-.02.035-.018.035-.017.035-.015.037-.016.036-.014.037-.013.037-.012.037-.012.038-.02.077-.008.038-.007.04-.006.038-.005.04-.003.04-.003.039-.002.04v.04l.001.054.002.055.006.054.006.054.01.053.01.052.014.052.014.051.017.052.02.049.02.05.021.048.024.048.025.047.027.045.028.045.03.044.033.042.033.042.035.04.036.038.037.038.04.036.04.035.041.033.043.031.044.03.046.029.047.027.048.026.047.022.05.022-.042.001-.042.003-.043.004-.041.007-.042.009-.04.01-.04.013-.039.013-.038.015-.038.017-.036.02-.036.02-.035.021-.033.023-.033.025-.032.025-.03.028-.03.029-.028.03-.026.03-.025.032-.024.033-.023.035-.021.035-.02.037-.017.037-.016.038-.016.04-.012.04-.012.04-.008.042-.007.042-.005.029-.006.028-.006.028-.007.029-.008.027-.01.027-.01.027-.01.026-.012.027-.012.025-.014.025-.013.025-.015.024-.015.024-.016.024-.017.023-.018.023-.018.021-.02.022-.018.02-.02.02-.021.02-.022.019-.021.018-.023.018-.023.018-.023.015-.024.016-.025.015-.025.015-.025.013L1 10l.026.013.026.014.025.014.024.016.026.015.022.016.024.018.022.018.023.018.021.019.02.02.021.02.02.02.017.022.02.023.016.022.017.024.015.024.016.024.014.024.015.025.013.025.012.026.012.027.01.026.01.026.009.028.008.027.007.028.006.029.006.028.005.03.007.041.009.042.011.04.012.04.016.04.016.038.018.037.019.036.021.036.023.035.024.032.025.033.027.03.027.03.03.03.03.027.032.025.033.025.033.023.035.022.036.02.036.019.037.017.038.015.04.015.04.012.04.01.04.008.043.007.042.005.043.003h.043l-.033.014-.03.015-.032.016-.06.036-.027.019-.029.021-.026.02-.027.023-.025.024-.024.024-.023.026-.022.025-.022.027-.02.028-.02.027-.019.03-.016.029-.017.03-.016.03-.014.032-.012.031-.012.033-.01.032-.01.034-.009.033-.007.034-.006.034-.005.035-.003.035-.002.035V12.417l.003.025.002.024.003.025.003.024.005.025.005.024.005.025.006.024.007.024.007.023.007.024.008.022.009.022.01.022.005.018.005.019.004.019.001.02-.001.018-.003.02-.004.017-.006.017-.009.017-.01.016-.01.014-.012.013-.013.012-.015.01-.015.01-.034.015-.018.003-.018.004-.019.001-.019-.001-.02-.004-.017-.003-.017-.007-.016-.008-.015-.01-.014-.01-.014-.012-.013-.013-.01-.015-.009-.015-.008-.017-.006-.017-.005-.018-.002-.019-.002-.018v-.008l.002-.006-.002.027-.002.03-.002.063.002.074.005.073.01.073.012.072.016.07.02.069.023.067.026.066.03.065.032.062.034.06.039.06.04.057.044.055.045.053.048.05.05.048.053.047.055.043.058.04.058.038.061.034.063.033.064.03.066.025.067.023.07.02.07.016.071.013.073.01.073.005.076.001h.034l.036-.002.035-.002.072-.007.036-.006.036-.006.035-.008.036-.007.034-.008.035-.01.034-.01.034-.01.034-.01.032-.013.033-.012-.032.034-.03.035-.028.037-.025.037-.026.04-.022.039-.02.042-.02.042-.017.043-.014.044-.012.044-.01.045-.01.045-.004.046-.004.046V14.975l.002.037.004.037.005.036.007.037.009.036.01.036.01.036.013.035.014.035.03.067.018.032.019.032.019.032.02.03.02.03.02.03.019.033.017.032.016.034.015.033.013.035.013.035.01.036.01.036.009.036.007.037.005.036.005.037.002.037v.078l-.004.04-.004.04-.006.04-.009.04-.01.039-.01.04-.012.036.037-.01.038-.011.04-.008.04-.009.041-.006.041-.004.04-.004h.077l.038.002.037.004.036.006.037.006.036.008.036.01.036.01.034.012.035.015.034.014.033.016.032.018.033.019.031.019.03.022.03.02.031.02.032.018.033.018.033.016.034.014.034.015.035.011.036.011.036.01.036.008.037.006.036.006.037.004.037.002.038.001h.046l.046-.005.045-.006.046-.008.044-.01.044-.013.045-.014.043-.017.042-.019.04-.02.041-.023.039-.024.038-.026.036-.03.035-.028.032-.032-.016.042-.013.044-.012.044-.01.046-.008.045-.006.047-.003.046-.002.045v.036l.003.036.003.036.005.035.006.034.007.035.01.035.01.033.01.034.013.032.014.033.015.032.016.031.017.03.018.03.019.03.02.029.022.027.022.027.023.026.024.025.025.024.027.024.027.023.028.021.028.02.03.02.03.018.031.017.032.015.032.016.033.013.014.006.013.006.012.007.01.008.011.01.01.01.01.01.008.01.007.013.006.012.006.013.005.013.003.013.003.015.002.014v.014l-.001.02-.002.018-.005.018-.006.016-.009.017-.01.016-.01.014-.012.013-.013.012-.015.01-.015.01-.016.009-.018.006-.018.005-.018.002-.019.001-.02-.001-.02-.004-.02-.006-.019-.007-.018-.01-.017-.011-.015-.014-.015-.014.027.03.026.029.028.028.027.028.029.026.03.025.031.026.03.025.032.022.033.023.032.022.034.02.034.02.035.02.035.018.036.016.036.016.036.016.037.014.037.013.037.012.038.012.077.02.038.008.04.007.038.006.04.004.04.004.039.002.04.003h.04l.055-.002.054-.002.108-.012.053-.01.052-.01.052-.013.051-.015.052-.017.05-.019.05-.02.047-.022.048-.024.047-.025.045-.026.045-.029.044-.031.042-.031.042-.034.04-.035.039-.035.037-.038.036-.04.034-.04.034-.04.031-.044.031-.044.028-.046.027-.046.025-.048.023-.05.022-.05.001.044.004.043.004.042.006.041.009.041.01.04.013.04.013.04.015.038.017.037.02.036.02.036.021.035.023.034.025.033.025.031.028.03.028.03.03.028.032.026.032.026.032.024.035.022.036.021.036.02.037.018.038.016.04.015.04.013.04.01.042.01.042.008.029.004.028.006.028.006.029.007.027.009.027.008.027.01.027.011.026.011.025.014.025.013.025.013.024.015.024.015.024.017.023.016.023.018.043.036.02.02.02.02.02.021.019.022.019.021.017.023.018.023.015.023.017.024.015.025.014.025.013.025.013.026.013-.026.014-.026.014-.025.016-.024.015-.026.017-.022.017-.024.018-.022.018-.023.019-.021.04-.04.02-.02.022-.02.023-.017.046-.034.024-.016.048-.03.025-.014.025-.013.026-.012.027-.012.026-.01.026-.01.028-.008.027-.009.03-.007.027-.006.028-.006.03-.005.041-.007.042-.01.04-.01.04-.013.04-.015.038-.017.037-.018.037-.019.035-.021.035-.022.033-.024.032-.026.03-.027.03-.027.03-.03.027-.03.025-.031.025-.034.023-.033.022-.035.02-.036.019-.036.017-.037.015-.038.014-.04.012-.04.01-.04.009-.04.007-.043.005-.042.002-.042.001-.043.013.033.016.03.016.032.018.03.017.029.02.028.021.028.022.028.021.026.024.025.024.024.05.045.028.022.028.02.027.02.029.019.03.016.03.017.031.016.031.014.031.012.033.012.032.01.033.01.034.009.034.007.034.006.035.005.035.003.035.002h.083l.026-.003.024-.002.025-.002.025-.004.024-.005.025-.005.024-.004.024-.006.024-.007.023-.007.024-.008.022-.008.022-.01.021-.008.018-.007.02-.005.019-.004h.04l.017.004.018.004.034.014.015.01.015.01.013.012.012.013.01.015.01.015.015.034.007.036.001.02-.001.018-.004.02-.003.017-.015.034-.01.016-.01.014-.012.013-.013.012-.015.01-.015.01-.017.008-.017.006-.018.004-.018.004h-.033l.027.001.03.002.063.003.074-.002.074-.005.072-.01.072-.013.07-.015.069-.02.067-.024.066-.026.065-.029.062-.032.06-.035.06-.038.057-.04.055-.044.053-.045.05-.048.048-.05.047-.053.043-.055.04-.058.038-.059.035-.06.032-.063.03-.065.025-.066.024-.067.02-.07.016-.069.012-.071.01-.074.005-.073.002-.075v-.035l-.002-.036-.003-.034-.003-.036-.004-.036-.006-.036-.006-.036-.007-.035-.008-.036-.008-.035-.01-.034-.01-.035-.01-.034-.01-.033-.013-.033-.012-.032.034.031.035.03.037.028.037.026.04.024.039.023.042.02.042.02.043.016.044.015.044.011.045.011.045.009.046.006.047.003.045.001h.037l.037-.003.037-.004.036-.006.038-.007.035-.008.036-.01.036-.01.035-.012.035-.015.033-.014.034-.017.032-.017.033-.018.03-.019.06-.04.032-.021.032-.018.032-.017.034-.016.033-.015.035-.013.036-.013.035-.01.036-.01.036-.009.037-.007.037-.005.036-.005.037-.002h.078l.04.004.04.004.04.006.04.009.039.008.04.011.036.01-.01-.036-.011-.04-.009-.04-.008-.04-.006-.039-.005-.04-.003-.04v-.078l.002-.037.004-.037.006-.036.006-.037.008-.036.01-.036.01-.036.012-.034.015-.035.014-.034.017-.033.017-.033.019-.032.019-.031.021-.03.02-.03.021-.031.018-.032.018-.033.016-.033.015-.034.014-.035.011-.034.011-.036.01-.036.008-.036.007-.037.005-.036.004-.037.002-.037.001-.038v-.045l-.004-.047-.006-.045-.009-.046-.01-.044-.012-.044-.015-.045-.017-.043-.019-.042-.02-.04-.023-.04-.024-.04-.026-.037-.029-.036-.029-.034-.032-.034.042.017.044.013.045.012.045.01.046.008.046.006.046.003.045.001h.036l.037-.002.035-.004.036-.004.035-.006.035-.008.034-.01.034-.009.033-.01.033-.014.032-.013.031-.015.031-.016.031-.017.03-.018.03-.019.027-.02.027-.022.028-.022.025-.023.025-.024.025-.025.023-.027.023-.027.021-.028.02-.028.02-.03.018-.03.017-.032.016-.032.015-.032.014-.034.005-.013.007-.012.007-.012.009-.012.01-.01.009-.01.01-.008.011-.009.012-.008.012-.006.014-.006.013-.005.013-.004.014-.002.015-.002h.034l.017.003.018.005.017.006.017.008.015.01.015.01.013.013.012.013.01.014.01.016.009.015.006.018.004.018.003.018v.04l-.004.02-.006.02-.007.017-.01.018-.012.017-.013.016-.014.013.03-.025.029-.028.028-.027.028-.028.026-.03.025-.029.026-.03.025-.032.022-.031.023-.032.022-.033.02-.033.02-.034.02-.035.018-.034.016-.036.017-.035.015-.037.014-.036.013-.037.012-.037.012-.039.01-.037.01-.038.008-.04.007-.038.006-.04.005-.038.003-.04.003-.039.002-.04v-.04l-.001-.055-.003-.054-.004-.054-.008-.054-.01-.053-.01-.052-.013-.052-.015-.051-.016-.052-.02-.05-.02-.05-.021-.047-.024-.048-.025-.047-.027-.045-.029-.045-.03-.044-.032-.042-.033-.042-.035-.04-.036-.039-.037-.037-.04-.036-.04-.035-.041-.033-.043-.031-.045-.031-.045-.028-.047-.028-.048-.025-.049-.022-.05-.022.043-.001.043-.004.042-.005.042-.006.04-.008.041-.01.04-.013.04-.013.038-.015.037-.017.036-.02.036-.02.034-.021.034-.023.034-.025.03-.025.03-.028.03-.029.028-.03.028-.03.025-.033.024-.032.022-.035.02-.036.02-.036.018-.037.017-.038.014-.04.013-.04.012-.04.009-.042.008-.042.005-.029.005-.029.007-.027.007-.029.009-.027.008-.027.01-.027.011-.027.011-.026.013-.025.014-.025.013-.025.014-.024.016-.024.017-.024.033-.046.02-.021.017-.022.02-.02.02-.02.021-.02.022-.019.021-.02.023-.016.023-.018.023-.016.024-.016.025-.015.025-.014.025-.013.026-.013-.052-.027-.025-.014-.026-.016-.024-.015-.022-.017-.024-.017-.022-.018-.023-.018-.021-.019-.04-.04-.02-.021-.02-.022-.017-.022-.017-.023-.017-.023-.016-.024-.015-.024-.015-.024-.014-.025-.013-.025-.012-.026-.012-.027-.01-.026-.01-.026-.01-.028-.007-.028-.007-.028-.007-.028-.01-.057-.017-.084-.012-.04-.013-.04-.014-.04-.017-.038-.018-.037-.02-.037-.02-.035-.022-.035-.024-.033-.025-.032-.028-.03-.027-.03-.03-.03-.03-.027-.031-.026-.034-.024-.034-.023-.034-.023-.036-.019-.036-.02-.037-.016-.039-.015-.04-.015-.039-.012-.081-.019-.042-.006-.042-.005-.043-.003-.043-.002.032-.014.062-.031.03-.018.029-.018.029-.02.027-.02.028-.021.025-.023.025-.024.024-.024.024-.025.023-.025.021-.026.02-.028.02-.028.02-.028.033-.06.015-.03.015-.031.013-.033.012-.032.01-.032.01-.033.008-.033.008-.035.006-.033.004-.035.004-.035.002-.035V7.585l-.002-.025-.002-.024-.004-.025-.003-.025-.004-.024-.005-.025-.006-.024-.006-.024-.007-.024-.007-.023-.007-.024-.009-.022-.008-.022-.01-.022-.007-.018-.005-.019-.003-.019-.002-.02.002-.02.002-.017.005-.018.007-.017.007-.017.01-.015.01-.015.013-.013.013-.012.014-.01.016-.01.017-.007.016-.008.018-.003.018-.004.02-.001.019.001.019.004.018.003.016.008.017.007.015.01.014.01.014.012.012.013.011.015.009.015.008.017.006.017.005.018.003.018v.033l.001-.029.003-.03.002-.062-.002-.074-.005-.073-.01-.073-.013-.072-.015-.07-.02-.069-.023-.067-.027-.066-.028-.065-.033-.062-.035-.061-.038-.059-.04-.057-.044-.055-.045-.053-.048-.05-.05-.048-.053-.046-.055-.044-.058-.04-.058-.038-.062-.035-.062-.032-.065-.03-.065-.025-.068-.023-.069-.02-.07-.016-.071-.013-.073-.01-.073-.006h-.111l-.036.002-.034.002-.036.004-.036.003-.036.006-.036.006-.035.007-.036.008-.034.008-.07.02-.033.01-.034.01-.032.013-.033.012.031-.034.03-.035.028-.036.026-.038.024-.04.023-.039.02-.042.02-.042.016-.043.015-.044.012-.045.01-.044.009-.045.006-.046.003-.047.002-.045-.002-.037-.002-.037-.004-.038-.006-.035-.007-.038-.008-.036-.01-.035-.01-.036-.013-.035-.014-.035-.014-.033-.017-.034-.017-.032-.018-.033-.019-.03-.04-.06-.021-.032-.018-.032-.017-.033-.017-.033-.014-.034-.013-.034-.013-.035-.011-.036-.01-.036-.008-.036-.007-.037-.005-.036-.005-.037-.002-.037v-.078l.003-.04.005-.04.006-.04.008-.04.01-.039.01-.038.013-.039-.037.012-.04.011-.04.009-.039.008-.04.006-.042.005-.04.003h-.078l-.037-.002-.036-.004-.037-.006-.037-.006-.036-.008-.036-.01-.035-.01-.036-.012-.035-.015-.033-.014-.034-.017-.032-.017-.032-.019-.032-.019-.06-.043-.03-.02-.033-.018-.032-.017-.034-.017-.033-.014-.035-.015-.035-.012-.036-.01-.036-.01-.036-.008-.037-.006-.036-.006-.037-.004-.037-.002-.037-.002-.046.002-.046.003-.046.006-.045.009-.045.01-.044.012-.044.015-.043.016-.042.02-.041.02-.04.023-.04.025-.036.025-.036.029-.035.03-.033.03.016-.041.014-.043.011-.044.011-.046.007-.045.006-.047.004-.046.001-.045V3.21l-.002-.036-.004-.036-.005-.035-.006-.035-.007-.034-.01-.035-.009-.034-.01-.033-.014-.032-.013-.033-.016-.032-.015-.031-.017-.03-.018-.03-.02-.03-.02-.029-.021-.027-.023-.027-.023-.026-.024-.025-.025-.024-.026-.024-.028-.023-.027-.02-.029-.02-.03-.021-.03-.018-.03-.017-.033-.015-.033-.015-.033-.014-.013-.005-.012-.007-.012-.007-.012-.009-.011-.01-.01-.009-.016-.021-.009-.012-.006-.012-.006-.013-.005-.014-.003-.013-.003-.014v-.015l-.002-.014.001-.02.003-.017.004-.018.006-.017.009-.017.01-.015.01-.015.012-.013.013-.012.015-.01.015-.01.016-.008.018-.006.018-.005.018-.003h.039l.02.004.02.006.02.007.017.01.017.012.015.013.016.014-.026-.03-.027-.028-.027-.03-.03-.027-.028-.026-.029-.025-.062-.05-.031-.023-.032-.023-.034-.022-.033-.02-.034-.02-.035-.02-.035-.017-.036-.017-.036-.017-.036-.014-.037-.015-.037-.013-.037-.012-.038-.012-.077-.019-.038-.008-.04-.007-.038-.006-.04-.005-.04-.004-.039-.002-.04-.003h-.04l-.054.002-.055.002-.054.005-.054.007-.053.01-.052.01-.052.014-.051.014-.052.017-.049.019-.05.02-.048.022-.048.024-.047.025-.045.026-.045.029-.044.03-.042.032-.042.034-.04.035-.038.035-.038.038-.036.04-.035.04-.033.04-.031.044-.03.044-.03.045-.027.047-.025.048-.023.05-.021.05-.001-.044-.003-.043-.004-.042-.008-.042-.008-.04-.01-.041-.013-.04-.013-.039-.016-.038-.016-.038-.02-.035-.02-.036-.021-.035-.023-.034-.025-.033-.025-.031-.028-.03-.029-.03-.03-.028-.03-.026-.032-.025-.034-.024-.034-.023-.035-.022-.037-.019-.037-.018-.039-.016-.04-.015-.039-.013-.04-.01-.042-.01-.042-.008z" fill-rule="evenodd" style="stroke:none;fill:#ffcd00"/>
</svg>
