<svg width="25" height="20" xmlns="http://www.w3.org/2000/svg">
 <path d="M11.922 19.495c-.05-.007-.241-.027-.425-.046-2.996-.296-5.91-1.834-7.909-4.173C1.868 13.264.815 10.641.608 7.85.566 7.26.587 6.328.652 5.98c.224-1.21.734-2.166 1.604-3.01.725-.704 1.356-1.05 2.505-1.377C7.56.796 10.093.46 12.985.504c2.237.033 4.208.287 6.317.815 1.744.437 2.373.692 3.098 1.257.317.247.83.785 1.068 1.12.528.744.852 1.662.92 2.607.186 2.626-.44 5.137-1.847 7.396-1.232 1.979-2.81 3.456-4.788 4.48a11.885 11.885 0 0 1-4.061 1.26c-.35.044-1.57.084-1.77.056z" fill="#fff" stroke="#000" stroke-width="1.243" style="stroke:#000;stroke-width:1;stroke-miterlimit:4;stroke-dasharray:none;stroke-opacity:1"/>
</svg>
