<svg version="1.0" width="22" height="20" xmlns="http://www.w3.org/2000/svg">
 <path d="M.5.5h21v13.802c0 2.887-8.383 5.181-10.496 5.198C9.026 19.516.5 17.19.5 14.302Z" style="fill:#003f87;stroke:#fff;stroke-width:1;stroke-miterlimit:4"/>
 <rect style="fill:#fff" width="21" height="5" x=".5" y=".5" rx="0" ry="0"/>
 <path style="fill:none;stroke:#003f87;stroke-width:1px;stroke-linecap:butt;stroke-linejoin:miter" d="m.5 5 21-4M.5 1l21 4"/>
 <path d="M9.501 1.495 12.5 1.5V3c0 1.011-1.132 1.499-1.5 1.5-.392.001-1.5-.556-1.5-1.5Z" style="fill:#ffcd00;fill-rule:evenodd;stroke:#000;stroke-width:.25;stroke-linecap:butt;stroke-linejoin:miter;stroke-miterlimit:4"/>
 <rect style="fill:none;stroke:#fff;stroke-width:.7;stroke-linejoin:miter;stroke-miterlimit:4" width="20.5" height="4.5" x=".75" y=".75" rx="0" ry="0"/>
 <rect style="fill:none;stroke:#003f87;stroke-width:.25;stroke-linejoin:miter;stroke-miterlimit:4" width="19.75" height="3.75" x="1.125" y="1.125" rx="0" ry="0"/>
</svg>
