<svg width="25" height="20" viewBox="0 0 6.615 5.292" xmlns="http://www.w3.org/2000/svg">
 <path style="fill:#003f87;stroke:none;stroke-width:.282584;stroke-miterlimit:4;stroke-dasharray:none" d="M6.073 1.72H.543c.136.19.2.394.2.612 0 .291-.067.451-.276.665-.159.16-.328.49-.328.736 0 .609.659 1.037 1.604 1.037h.99a.43.43 0 0 1 .301.114l.273.276.277-.276a.43.43 0 0 1 .301-.114h.993c.943 0 1.605-.428 1.605-1.037 0-.25-.173-.575-.328-.736-.216-.21-.284-.374-.284-.665 0-.22.065-.422.202-.612z"/>
 <path style="fill:#bf2033;stroke:none;stroke-width:.282584;stroke-miterlimit:4;stroke-dasharray:none" d="m1.591.132-1.459 1.2.132.102a1.533 1.533 0 0 1 .278.286h5.53c.011-.015.03-.042.042-.056.068-.083.145-.16.237-.23l.132-.102L5.023.135 4.892.25c-.202.173-.466.27-.736.27A1.19 1.19 0 0 1 3.44.27L3.307.17 3.18.269a1.173 1.173 0 0 1-.716.248c-.274 0-.533-.096-.736-.27z"/>
 <path style="fill:none;stroke:#fff;stroke-width:.2646;stroke-linejoin:round;stroke-miterlimit:4;stroke-dasharray:none" d="M.744 2.332c0 .291-.068.451-.277.665-.159.16-.328.49-.328.736 0 .609.659 1.037 1.604 1.037h.99a.43.43 0 0 1 .301.114l.273.276.277-.276a.43.43 0 0 1 .301-.114h.993c.943 0 1.605-.428 1.605-1.037 0-.25-.173-.575-.328-.736-.216-.21-.284-.374-.284-.665 0-.22.065-.422.202-.612l.041-.056c.068-.083.145-.16.237-.23l.132-.102L5.023.135 4.892.25c-.202.173-.466.27-.736.27A1.19 1.19 0 0 1 3.44.27L3.307.17 3.18.269a1.173 1.173 0 0 1-.716.248c-.274 0-.533-.096-.736-.27L1.59.132l-1.459 1.2.132.102a1.533 1.533 0 0 1 .278.286c.137.19.202.394.202.612z"/>
 <path style="fill:none;stroke:#fff;stroke-width:.2646px;stroke-linecap:butt;stroke-linejoin:miter;stroke-opacity:1" d="M.53 1.72h5.556"/>
</svg>
