<svg width="21" height="20" overflow="visible" xmlns="http://www.w3.org/2000/svg">
 <rect style="fill:#693f23;fill-rule:evenodd;stroke:#ffcd00;stroke-width:1;stroke-linecap:square;stroke-miterlimit:4;stroke-dasharray:none;stroke-opacity:1" width="20" height="19" x=".5" y=".5" ry="1.5" rx="1.5"/>
 <path d="M10.141 17.714h7.594c-.05-.686.118-1.237-.29-1.832-.043-.63.003-1.286.238-1.934.376-.583-.094-1.305.34-1.887.562-.397-.061-1.354.555-1.877.146-.563.174-.887.33-1.415.197-.304.186-.474.309-.833-.17.282-.225.43-.436.62-.491.771-.935 1.094-1.508 1.805.363-.514.223-1.683.27-2.472.125-.554-.72.264-.482-.39.137-.376.282-.827-.12-1.113-.749-.424-.773-.658-1.84-.81-.647-.105-1.212-.61-1.915-.68-.529-.268-1.39-.145-1.71-.655-.525-.393-.903-1.003-1.888-.622-.105-.35.801-1.256.103-1.345-.331.222-.629.296-.891.4-.574.201-1.255.653-1.849.406-.305-.345-.437.276-.621.247-.126.7.113 1.531-.228 2.134-.425.044-.97.401-1.139.924-.333.204-.23.752.191.726.44.522-.127.733-.122 1.322" style="fill:none;stroke:#fff;stroke-width:.75;stroke-linecap:butt;stroke-linejoin:round;stroke-miterlimit:4;stroke-dasharray:none"/>
</svg>
