<svg width="20" height="20" xmlns="http://www.w3.org/2000/svg">
 <rect style="fill:#fff;fill-rule:evenodd;stroke:#000" width="19" height="19" x=".5" y=".5" rx="1.5" ry="1.5"/>
 <path d="m2.337 13.272.377.546.626.184-.402.527.019.652-.626-.22-.615.22.016-.664-.398-.516.636-.19zm3.192-.49.377.545.626.183-.403.528.02.652-.627-.22-.614.22.016-.664-.399-.516.636-.19zm3.027.265.377.546.626.183-.403.528.02.652-.627-.22-.614.22.016-.664-.399-.516.636-.19zm2.482.887.378.546.626.183-.403.528.019.652-.626-.22-.615.22.016-.664-.398-.517.636-.19zm1.167 2.746.377.546.626.183-.403.528.02.652-.627-.22-.614.22.016-.664-.399-.517.636-.19zm4.062-.887.378.547.626.183-.403.527.019.652-.626-.22-.615.22.016-.664-.398-.516.636-.19zm-.079-3.028.377.546.626.183-.402.528.019.652-.626-.22-.615.22.016-.664-.399-.516.637-.19z"/>
</svg>
