<svg width="20" height="20" viewBox="0 0 3.333 3.333" xmlns="http://www.w3.org/2000/svg">
 <path d="M3.179.084a.066.066 0 0 0-.031.01A.891.883 0 0 1 2.7.23l-.183.007a.724.717 0 0 0-.298.074.25.248 0 0 1-.273-.033.16.158 0 0 0-.186-.016.1.1 0 0 1-.114-.007.277.275 0 0 0-.3-.027A.214.212 0 0 1 1.12.21.214.212 0 0 0 .997.17L.133.152A.049.048 0 0 0 .083.2v2.393a.049.048 0 0 0 .054.048.128.126 0 0 1 .123.062.416.412 0 0 0 .14.142.846.839 0 0 0 .31.116 2.23 2.209 0 0 0 .256.027.302.3 0 0 1 .212.1.486.482 0 0 0 .477.148.309.306 0 0 1 .156.003.147.145 0 0 0 .113-.015l.056-.032a.157.156 0 0 0 .026-.019.07.07 0 0 1 .077-.011.1.099 0 0 0 .132-.048.457.453 0 0 1 .3-.248.806.799 0 0 0 .598-.883.254.252 0 0 1 .047-.184.207.205 0 0 0 .008-.232.063.063 0 0 1 .025-.09.103.102 0 0 0 .057-.09V.149a.066.066 0 0 0-.071-.066Z" fill="#fff" stroke-width=".216" style="stroke:#006747;stroke-width:.16664;stroke-miterlimit:4;stroke-dasharray:none;stroke-opacity:1"/>
 <path d="M.681.69c.055 0 .102.013.14.038a.295.295 0 0 1 .1.116.59.59 0 0 1 .043.135.794.794 0 0 1-.01.353.412.412 0 0 1-.069.15.245.245 0 0 1-.209.097.28.28 0 0 1-.15-.037.274.274 0 0 1-.099-.117A.753.753 0 0 1 .391.94a.491.491 0 0 1 .07-.152.238.238 0 0 1 .091-.072.313.313 0 0 1 .13-.024zm1.925 0c.055 0 .101.013.14.038a.295.295 0 0 1 .1.116.59.59 0 0 1 .042.135.794.794 0 0 1-.009.353.412.412 0 0 1-.07.15.246.246 0 0 1-.209.097.28.28 0 0 1-.15-.037.274.274 0 0 1-.098-.117.753.753 0 0 1-.036-.486.491.491 0 0 1 .069-.152.237.237 0 0 1 .092-.072.313.313 0 0 1 .129-.024zM1.17.707h.136v.346h.315V.706h.136v.857h-.136V1.19h-.315v.373H1.17zm.793 0h.14v.857h-.14zM.666.83a.119.119 0 0 0-.071.023.184.184 0 0 0-.056.083.394.394 0 0 0-.025.094.753.753 0 0 0 .005.24.313.313 0 0 0 .038.105c.014.022.03.039.05.05a.136.136 0 0 0 .07.017.12.12 0 0 0 .078-.026.19.19 0 0 0 .054-.083.436.436 0 0 0 .023-.09.578.578 0 0 0-.002-.24.343.343 0 0 0-.04-.106.137.137 0 0 0-.047-.049.143.143 0 0 0-.077-.018zm1.925 0a.119.119 0 0 0-.072.023.183.183 0 0 0-.055.083.394.394 0 0 0-.026.094.753.753 0 0 0 .005.24.313.313 0 0 0 .039.105c.014.022.03.039.049.05a.135.135 0 0 0 .07.017.12.12 0 0 0 .078-.026.19.19 0 0 0 .054-.083.433.433 0 0 0 .023-.09.578.578 0 0 0-.002-.24.343.343 0 0 0-.039-.106.137.137 0 0 0-.048-.049.143.143 0 0 0-.076-.018zm-2.329.984H.52v.067H.427v.433H.354V1.88H.262zm.326 0h.073v.36c0 .024.006.043.02.058.012.014.03.021.05.021a.06.06 0 0 0 .049-.021.083.083 0 0 0 .02-.058v-.36h.072v.351a.22.22 0 0 1-.011.069.167.167 0 0 1-.01.02.153.153 0 0 1-.051.05.131.131 0 0 1-.068.02.145.145 0 0 1-.124-.07.167.167 0 0 1-.019-.062v-.027zm.393 0h.15c.02 0 .038.004.054.01.017.006.03.016.042.027a.107.107 0 0 1 .027.042c.007.017.01.035.01.055a.15.15 0 0 1-.018.076.1.1 0 0 1-.054.045l.072.245H1.19l-.067-.235h-.07v.235H.981zm.368 0h.072l.139.3v-.3h.072v.5h-.055l-.156-.335v.335H1.35zm.393 0h.15a.132.132 0 0 1 .096.04.113.113 0 0 1 .027.043c.006.018.01.037.01.058 0 .046-.012.08-.035.104-.023.024-.055.036-.098.036h-.078v.22h-.072zm.353 0h.07v.5h-.07zm.182 0h.072v.2l.115-.2h.084l-.105.176.117.324h-.076l-.089-.244-.046.085v.16h-.072zm.368 0h.237v.07h-.165v.127h.105v.068h-.105v.165H2.9v.07h-.256zm-1.592.07v.127h.075c.021 0 .037-.006.048-.016.012-.011.017-.027.017-.047a.06.06 0 0 0-.018-.046.066.066 0 0 0-.047-.017zm.76 0v.142h.075c.022 0 .038-.006.049-.018.011-.013.017-.03.017-.053 0-.021-.006-.038-.018-.051s-.028-.02-.048-.02z" style="fill:#006747"/>
</svg>
