<svg width="25" height="20" viewBox="0 0 6.615 5.292" xmlns="http://www.w3.org/2000/svg">
 <path d="M3.307 5.16c.368 0 .707-.117.969-.31 1.009-.836 1.755-1.875 2.14-3.018.04-.1.066-.227.066-.358 0-.543-.449-1-1.083-1.135A10.318 10.318 0 0 0 3.307.132c-.742 0-1.418.07-2.092.207C.581.475.132.93.132 1.474c0 .131.027.258.067.358.385 1.143 1.131 2.182 2.14 3.018.262.193.6.31.968.31z" style="display:inline;fill:#003f87;fill-opacity:1;stroke:#fff;stroke-width:.26458333;stroke-linecap:butt;stroke-linejoin:round;stroke-miterlimit:4;stroke-dasharray:none;stroke-opacity:1"/>
</svg>
