<svg width="20" height="26" xmlns="http://www.w3.org/2000/svg">
 <path d="M3.196.5c-.216 0-.188 1.181-.052 1.708.096.37.925.503.925.503.475.26.577.28.692.496.115.216.25.964.176 1.161-.073.394-.92.41-1.294.496-.373.085-.504.437-.95.619-.947.038-1.352.32-1.793 1.251-.34.342-.54.961-.294 1.826.151.527.325 1.046.2 1.8-.111.665.236 1.525.409 1.89.172.364.268.86.216 1.103-.053.243.03.897.182 1.459.152.561.566 1.319.923 1.682.357.364.654.915.656 1.22.003.304.175.92.382 1.375.208.453.718 1.055 1.132 1.334.415.28.875.804 1.02 1.164.145.36.579.887.969 1.17.39.283 1.166.837 1.552 1.49.363.616 1.178.929 1.59 1.138.052.027.107.052.163.075.057-.023.113-.048.166-.075.412-.21 1.224-.522 1.587-1.138.386-.653 1.163-1.207 1.552-1.49.39-.283.826-.81.971-1.17.145-.36.603-.884 1.018-1.164.414-.28.925-.88 1.132-1.334.208-.454.38-1.07.382-1.376.003-.304.3-.855.656-1.219.357-.363.772-1.12.923-1.682.152-.562.237-1.216.185-1.459-.053-.242.041-.739.214-1.104.172-.364.52-1.224.409-1.89-.126-.753.048-1.272.199-1.8.247-.864.046-1.483-.294-1.825-.441-.931-.846-1.213-1.793-1.251-.446-.182-.577-.534-.95-.62-.373-.084-1.22-.1-1.294-.495-.073-.197.063-.945.178-1.161.115-.216.217-.236.692-.496 0 0 .827-.133.923-.503.136-.527.164-1.709-.052-1.709H10z" fill="#fff" stroke="#000"/>
</svg>
