<svg width="25" height="20" version="1.0" xmlns="http://www.w3.org/2000/svg">
 <path d="m21.8 6.55-.019-.016.035-.045.033-.046.032-.05.029-.048.026-.052.025-.052.021-.052.022-.055.018-.055.015-.056.013-.056.011-.057.01-.056.005-.058.005-.058.001-.057-.001-.053-.003-.054-.006-.053-.008-.054-.01-.053-.013-.052-.013-.054-.017-.052-.018-.05-.02-.05-.021-.05-.024-.05-.026-.047-.027-.046-.029-.044-.03-.044-.014-.014-.012-.017-.01-.018-.01-.017-.007-.02-.005-.02-.004-.018v-.042l.003-.02.006-.019.006-.018.01-.017.01-.017.01-.015.014-.014.015-.014.015-.01.017-.01.018-.01.018-.006.02-.006.02-.003h.039l.018.003.017.004.016.005.017.006.03.018.015.01.012.013.012.011.013.014.009.015.009.016.007.015.006.018.006.016-.01-.041-.01-.044-.015-.041-.015-.042-.016-.041-.018-.042-.04-.08-.045-.078-.026-.038-.025-.036-.028-.036-.027-.035-.029-.033-.03-.033-.066-.06-.069-.053-.07-.052-.073-.048-.074-.043-.076-.04-.077-.035-.079-.033-.08-.029-.082-.023-.081-.021-.083-.018-.084-.013-.083-.01-.084-.005-.085-.003-.085.001-.085.006-.083.01-.084.013-.084.017-.083.02-.081.025-.082.028-.08.032-.079.035-.077.04-.076.044-.075.047-.073.05-.07.056-.069.058.01-.046.008-.045.008-.046.004-.045.003-.046v-.09l-.003-.045-.004-.045-.006-.044-.01-.045-.008-.043-.013-.043-.012-.042-.015-.043-.016-.042-.019-.04-.02-.04-.02-.039-.023-.038-.024-.037-.026-.038-.027-.035-.029-.036-.03-.033-.032-.033-.033-.03-.035-.032-.073-.056-.039-.027-.04-.024-.028-.02-.027-.023-.027-.022-.028-.024-.025-.024-.025-.025-.024-.026-.022-.025-.023-.027-.021-.026-.021-.029-.02-.028-.02-.03-.018-.03-.016-.03-.017-.029-.017-.031-.013-.031-.014-.032-.014-.032-.01-.033-.012-.033-.01-.032-.009-.035-.007-.034-.008-.034-.006-.034-.004-.034-.003-.035-.003-.035-.002-.035v-.047l-.021.022-.021.022-.023.023-.023.02-.024.021-.024.02-.024.019-.026.02-.025.017-.026.016-.026.018-.054.03-.03.015-.026.015-.029.012-.029.013-.03.01-.029.012-.03.01-.03.01-.03.009-.03.007-.031.006-.032.007-.03.005-.032.004-.032.005-.031.003-.032.001-.032.002-.032.001-.033-.001-.067-.006-.031-.002-.052-.008-.05-.006-.051-.003-.052-.002h-.05l-.051.003-.05.005-.05.007-.048.009-.049.01-.048.014-.047.015-.045.017-.046.018-.045.021-.044.022-.042.026-.043.025-.04.028-.04.03-.038.031-.036.033-.036.034-.033.036-.032.037-.032.039-.029.04-.028.041-.026.044-.024.044-.021.046-.022.048-.001-.058-.005-.057-.006-.056-.009-.055-.012-.055-.013-.055-.016-.054-.018-.052-.02-.052-.022-.05-.024-.05-.027-.049-.028-.049-.03-.046-.032-.044-.033-.045-.036-.043-.036-.042-.04-.038-.04-.04-.041-.036-.043-.036-.045-.033-.045-.032-.047-.03-.049-.028-.05-.026-.051-.025-.052-.022-.053-.02-.054-.017-.056-.017-.018-.001-.02-.005-.016-.006-.019-.007-.016-.01-.015-.01-.014-.011-.014-.014-.012-.013-.01-.015-.01-.016-.008-.018-.006-.017-.005-.019-.003-.018v-.04l.003-.02.012-.038.01-.016.01-.017.01-.016.014-.013.015-.014.015-.012.017-.008.018-.01.018-.007.02-.004.02-.003.02-.002.019.002.018.001.017.005.018.006.016.006.017.007.015.009.015.009-.036-.027-.036-.027-.038-.023-.038-.024-.04-.023-.04-.022-.04-.02-.042-.017-.042-.018-.042-.015-.044-.015-.043-.012-.043-.01-.044-.009-.044-.007-.044-.006-.09-.005h-.087l-.088.003-.086.01-.086.011-.083.015-.083.02-.082.025-.082.026-.078.032-.077.034-.075.038-.074.04-.07.045-.07.048-.067.05-.065.054-.062.058-.059.058-.057.062-.053.066-.052.067-.048.07-.045.071-.041.074-.04.078-.034.079-.032.08-.027.083-.025.083-.02.087-.014.089-.012-.046-.013-.045-.015-.043-.015-.043-.018-.043-.02-.04-.02-.04-.023-.04-.023-.038-.026-.037-.027-.037-.029-.034-.029-.035-.03-.032-.032-.032-.033-.03-.035-.029-.036-.028-.036-.026-.037-.025-.039-.024-.04-.02-.04-.021-.04-.02-.043-.017-.043-.015-.043-.015-.044-.012-.046-.01-.045-.01-.047-.007-.047-.006-.035-.006-.07-.015-.032-.01-.035-.01-.033-.01-.034-.014-.031-.014-.034-.015-.031-.014-.032-.017-.03-.018-.03-.017-.031-.02-.029-.02-.028-.02-.03-.022-.026-.022-.026-.024-.027-.024-.025-.024-.025-.027-.023-.025-.024-.027-.021-.028-.043-.057-.02-.03-.018-.029-.018-.031-.016-.031-.015-.032-.011.035-.012.032-.012.033-.012.033-.015.032-.016.033-.015.031-.018.03-.018.031-.018.03-.02.028-.02.03-.022.027-.023.028-.022.027-.025.025-.024.025-.026.026-.025.023-.027.023-.028.022-.028.02-.03.022-.028.02-.03.018-.03.018-.032.018-.032.016-.032.015-.033.014-.033.013-.033.012-.05.015-.05.016-.047.02-.047.019-.045.022-.044.025-.043.026-.042.026-.04.03-.039.031-.036.032-.036.034-.067.071-.06.078-.027.04-.026.041-.024.042-.023.043-.02.045-.02.046-.016.046-.014.048-.013.047-.01.048-.008.049-.006.05-.005.05-.001.05v.052l.003.05-.023-.043-.024-.041-.024-.042-.028-.04-.028-.039-.03-.037-.03-.037-.033-.036-.033-.035-.033-.033-.036-.033-.037-.031-.038-.03-.039-.028-.04-.027-.04-.027-.04-.023-.043-.024-.044-.021-.044-.02-.044-.02-.045-.016-.046-.017-.093-.027-.047-.01-.049-.01-.048-.008-.048-.006-.049-.004-.05-.003h-.08l-.032.001-.033.002-.063.006-.032.004-.032.003-.029.005-.018.006-.02.004-.018.003-.02.002-.02-.002-.02-.003-.02-.006-.018-.006-.018-.009-.017-.009-.015-.011-.015-.014-.012-.013-.012-.017-.01-.016-.01-.018-.006-.018-.004-.019-.003-.02-.002-.02.002-.02.003-.019.004-.018.006-.017.01-.017.01-.015.01-.013.014-.013.03-.021.017-.01.018-.008.018-.006.02-.006.02-.004.02-.003.013-.002h.015l.014-.001h.013l-.09.003-.178.009-.089.004-.089.008-.088.007-.089.009-.088.012-.087.016-.085.02-.082.028-.077.032-.075.038-.072.041-.068.046-.065.05-.06.056-.06.06-.054.062-.05.065-.048.07-.044.072-.04.074-.037.077-.033.08-.03.082-.026.084-.023.084-.018.087-.015.087-.01.088-.008.09-.003.09v.09l.004.09.008.09.012.088.017.09.02.087.023.087-.036-.03-.038-.027-.039-.025-.04-.024-.04-.022-.041-.021-.042-.018-.043-.018-.042-.015-.044-.013-.044-.012-.044-.01-.045-.01-.044-.007-.045-.004-.046-.003-.043-.003H4.89l-.09.006-.046.004-.045.008-.044.009-.045.01-.044.012-.044.013-.043.017-.042.017-.042.02-.043.02-.04.023-.04.024-.033.016-.032.016-.033.015-.07.027-.034.01-.073.021-.036.01-.037.007-.037.006-.037.004-.037.005-.037.003-.038.001h-.07l-.034-.001-.033-.002-.035-.004-.033-.005-.035-.004-.033-.006-.034-.008-.033-.007-.033-.01-.032-.01-.033-.01-.032-.012-.032-.013-.031-.014-.03-.013.019.052.033.11.014.058.01.058.008.058.003.03.001.028.002.03v.068l-.003.042-.003.04-.006.042-.008.04-.007.041-.01.04-.011.04-.012.04-.014.04-.015.038-.017.037-.016.038-.019.035-.02.036-.02.034-.03.042-.028.043-.026.043-.022.045-.023.044-.018.046-.018.047-.015.047-.012.046-.013.05-.007.047-.008.047-.004.05-.002.047-.001.05.001.048.005.048.006.048.007.049.01.047.012.048.013.046.017.046.018.046.02.045.022.044.025.043.025.044.029.041.03.04.032.04.035.04H3.06l-.055.004-.055.006-.055.007-.054.009-.053.012-.055.015-.051.016-.052.018-.051.02-.05.022-.048.023-.047.026-.047.026-.047.03-.044.03-.044.033-.04.032-.041.036-.04.037-.038.039-.036.039-.035.041-.033.043-.032.043-.03.045-.027.046-.026.048-.024.049-.023.049-.02.05-.018.053-.009.035-.006.016-.009.017-.009.015-.01.015-.013.013-.013.012-.014.01-.015.01-.017.01-.016.007-.017.006-.036.006-.02.002-.02-.002-.02-.003-.02-.004-.018-.008-.018-.007-.017-.01-.015-.013-.015-.013-.012-.013-.013-.017-.01-.016-.01-.016-.005-.02-.005-.018-.003-.02-.001-.021v-.018l.003-.02.004-.019.006-.018.008-.017.009-.017.01-.016.011-.016-.029.032-.028.034-.028.036-.025.037-.025.038-.022.038-.023.039-.02.04-.02.042-.017.04-.016.043-.015.042-.013.043-.012.043-.01.043-.009.043-.009.086-.004.087-.002.086.005.086.007.085.013.083.016.082.021.082.025.08.027.079.032.077.036.076.04.074.043.073.047.07.05.068.053.067.057.064.06.061.064.06.067.056.07.054.072.05.076.048.078.046.082.042.085.037.086.036.09.03.093.03.094.023.098.02-.038.011-.038.012-.072.03-.037.018-.036.019-.035.02-.034.022-.035.023-.034.026-.033.025-.032.028-.031.028-.03.03-.03.031-.03.033-.027.034-.026.034-.025.036-.024.037-.023.038-.021.038-.021.04-.019.04-.018.042-.015.042-.015.043-.012.043-.01.045-.011.044-.008.046-.004.045-.008.036-.007.034-.01.032-.009.035-.01.032-.012.033-.014.033-.014.033-.015.03-.015.032-.018.031-.017.03-.02.03-.019.03-.02.028-.02.028-.023.027-.023.027-.024.026-.024.026-.026.023-.026.024-.027.024-.027.022-.028.023-.03.02-.029.02-.06.038-.032.017-.032.016-.033.016.035.01.035.013.033.012.033.013.032.015.032.015.032.016.031.017.03.017.03.02.03.02.028.02.03.02.026.023.027.022.026.024.026.025.024.024.024.027.023.027.023.026.02.027.022.028.02.03.018.03.018.03.018.03.015.032.017.031.013.033.014.033.012.033.014.049.016.049.019.046.02.046.022.045.024.044.026.042.027.04.03.04.03.039.034.037.033.034.035.034.038.033.037.031.04.029.04.028.043.025.042.024.044.022.046.021.045.018.047.016.047.015.048.014.05.01.05.009.05.006.05.004.051.003h.052l.053-.003.02.015-.036.046-.033.046-.06.099-.026.05-.026.054-.022.052-.02.055-.018.055-.015.055-.014.056-.012.057-.008.056-.007.058-.003.057-.002.058.002.053.003.054.006.053.007.054.01.054.012.052.015.053.015.052.018.05.021.051.021.05.024.048.026.048.027.046.03.045.03.043.013.015.012.016.01.018.01.018.007.02.005.018.003.02.001.02-.001.021-.003.02-.005.019-.006.018-.009.018-.01.016-.012.015-.013.015-.015.013-.015.01-.016.011-.019.009-.018.006-.02.006-.02.003h-.038l-.019-.003-.016-.003-.017-.006-.016-.006-.03-.018-.016-.01-.012-.01-.012-.014-.012-.013-.01-.014-.008-.015-.008-.017-.007-.016-.005-.016.01.041.011.043.014.042.015.042.017.041.016.042.02.04.021.039.023.038.022.039.052.074.027.036.027.034.029.033.03.033.067.06.068.054.07.05.074.048.074.043.075.04.077.036.079.033.08.028.08.026.084.02.081.017.083.013.085.01.085.007H4.5l.084-.006.085-.01.083-.013.085-.016.082-.02.083-.025.08-.028.08-.033.079-.035.078-.04.076-.044.074-.046.073-.052.07-.053.069-.06-.01.046-.008.045-.006.046-.005.046-.003.045-.001.046.001.044.003.045.005.045.006.044.007.045.01.043.011.043.014.042.015.043.017.041.018.04.02.04.02.04.023.038.025.037.025.037.028.036.028.034.03.034.032.033.034.031.034.032.035.028.038.028.04.025.039.026.028.02.028.023.027.022.027.024.024.024.026.024.024.025.023.027.023.026.02.027.022.028.02.029.02.03.017.028.017.03.017.03.015.032.015.031.014.031.012.033.012.033.01.033.01.032.01.034.007.035.008.034.005.034.006.034.003.035.003.035.001.034v.046l.021-.023.021-.023.023-.02.023-.021.024-.021.023-.02.025-.019.025-.017.025-.018.028-.018.025-.017.028-.016.027-.015.027-.015.057-.026.058-.024.03-.01.03-.011.03-.009.03-.009.031-.007.03-.008.032-.006.03-.004.032-.006.032-.003.032-.004.095-.004.032.001.035.003.033.004.03.001.052.007.05.006.052.005.052.001h.05l.051-.003.05-.004.048-.008.05-.009.049-.011.047-.012.047-.015.046-.018.046-.018.045-.02.044-.025.042-.023.043-.026.039-.028.04-.03.039-.03.036-.034.035-.034.035-.035.031-.038.032-.038.029-.04.027-.042.027-.043.023-.045.023-.046.02-.048.002.058.005.057.006.056.009.056.012.055.014.055.015.052.018.053.02.052.022.05.024.051.026.048.029.048.03.047.032.045.033.044.036.043.037.042.038.039.04.038.043.038.042.035.09.066.048.03.048.028.05.025.052.025.05.023.054.019.054.02.055.014.02.003.018.005.018.006.018.007.015.009.017.01.013.012.014.012.012.015.01.015.01.016.007.017.008.018.004.019.003.018v.04l-.009.038-.006.018-.009.018-.01.017-.012.016-.013.013-.015.014-.015.012-.016.008-.019.01-.018.005-.02.006-.02.003-.02.002-.018-.002-.019-.003-.018-.003-.033-.011-.017-.008-.015-.009-.015-.01.073.053.038.025.037.023.04.023.04.021.041.02.041.017.043.018.042.015.042.015.044.012.044.01.044.01.044.007.044.006.087.004.09.002.087-.005.086-.007.085-.014.085-.015.083-.02.082-.024.08-.027.079-.031.077-.034.075-.038.074-.041.072-.045.07-.047.066-.05.063-.054.064-.057.059-.06.056-.062.054-.064.051-.068.049-.07.045-.072.041-.074.04-.077.034-.079.03-.08.03-.084.022-.083.02-.086.016-.09.01.047.014.044.014.043.017.044.018.041.018.042.021.04.023.039.024.038.026.037.025.036.03.036.03.034.03.033.031.031.034.03.034.03.035.026.038.027.036.024.04.024.039.022.04.02.042.019.042.017.044.015.044.015.044.012.045.01.045.01.047.007.047.006.035.006.036.007.033.01.035.01.033.01.035.012.034.012.031.013.034.015.031.015.03.018.032.016.03.018.058.039.029.02.029.023.027.022.026.023.025.023.026.026.024.025.024.025.023.027.021.027.043.056.02.03.017.03.019.03.016.03.015.033.01-.034.011-.034.013-.033.013-.032.015-.033.015-.033.016-.031.018-.03.016-.031.02-.03.02-.028.042-.057.023-.026.022-.027.025-.025.024-.026.025-.025.026-.024.055-.044.028-.021.03-.021.028-.02.03-.017.03-.018.032-.018.032-.016.032-.015.066-.027.035-.012.05-.015.048-.016.047-.018.047-.02.046-.023.043-.024.043-.025.042-.028.04-.029.039-.03.072-.066.034-.036.033-.036.03-.038.03-.039.028-.04.025-.042.024-.041.023-.043.02-.045.018-.045.017-.046.015-.047.012-.048.01-.048.01-.049.006-.05.004-.05.001-.05v-.05l-.003-.053.023.045.023.042.025.041.028.04.027.04.03.038.03.036.032.035.033.036.035.033.036.032.037.032.038.03.037.028.041.026.04.026.042.023.042.024.043.021.043.02.046.019.045.018.045.014.047.015.094.024.049.009.048.008.048.006.049.004.05.003h.08l.032-.001.033-.002.032-.003.031-.003.032-.004.032-.003.029-.005.018-.004.02-.005.018-.003.02-.001.019.001.021.003.02.005.018.007.018.009.017.009.015.012.015.013.012.014.012.016.01.016.009.017.007.019.005.02.003.019.001.02-.001.02-.003.02-.005.018-.006.018-.007.017-.011.016-.01.015-.014.013-.014.012-.015.01-.017.011-.016.008-.018.006-.02.004-.02.003-.021.001h-.059.136l.047.002.092.003.094.003h.09l.045-.001.043-.003.043-.005.042-.006.04-.007.039-.01.084-.03.082-.03.079-.038.075-.04.073-.043.071-.049.067-.05.063-.055.062-.058.058-.061.054-.063.051-.067.049-.068.044-.072.04-.074.038-.074.035-.078.03-.08.028-.08.024-.082.02-.083.015-.085.012-.085.009-.086.004-.086v-.088l-.003-.088-.007-.088-.012-.087-.016-.087-.02-.087-.025-.087.038.03.038.027.039.025.04.024.04.022.04.021.043.018.043.018.042.015.044.013.044.012.043.01.044.01.046.007.044.004.045.003.045.003h.046l.045-.003.045-.003.046-.004.043-.008.046-.009.044-.01.044-.012.043-.013.044-.017.043-.018.042-.019.042-.02.041-.023.04-.024.031-.016.033-.017.034-.014.07-.027.034-.01.036-.013.073-.017.036-.008.037-.006.037-.004.037-.005.037-.003.037-.001.038-.002.033.002.035.001.033.002.035.004.033.005.033.004.035.006.067.015.031.009.034.01.031.01.034.013.032.013.03.013.032.014-.02-.052-.018-.055-.015-.055-.014-.058-.01-.058-.008-.058-.003-.03-.002-.028-.001-.03-.001-.028v-.04l.004-.042.003-.04.006-.042.006-.04.01-.042.008-.04.012-.04.013-.04.013-.039.015-.038.017-.038.017-.037.018-.037.02-.034.019-.034.03-.042.029-.043.026-.043.022-.045.022-.044.02-.047.017-.046.016-.047.012-.048.01-.047.01-.048.007-.048.004-.049.002-.047.001-.05-.001-.049-.005-.047-.006-.048-.007-.049-.01-.047-.011-.047-.016-.047-.015-.046-.018-.046-.02-.045-.022-.045-.024-.043-.026-.043-.029-.041-.03-.04-.032-.04-.035-.038h.056l.056-.001.056-.003.056-.006.055-.008.054-.01.053-.012.053-.014.053-.016.051-.018.05-.02.05-.021.05-.024.047-.025.047-.027.045-.03.046-.03.042-.032.042-.035.041-.034.04-.037.037-.039.037-.04.034-.04.034-.043.031-.043.03-.046.028-.046.026-.048.024-.048.022-.05.02-.05.018-.053.003-.018.006-.018.006-.016.01-.016.009-.015.01-.015.012-.013.014-.012.014-.01.015-.011.015-.01.016-.007.019-.006.018-.004.018-.002h.04l.02.004.02.004.018.007.018.008.017.01.015.012.015.014.012.013.012.015.011.016.008.018.007.02.005.017.003.021.001.02-.001.019-.002.02-.004.018-.006.018-.008.018-.009.017-.01.016-.012.016.03-.032.029-.035.027-.034.025-.037.025-.037.022-.039.023-.039.02-.04.02-.041.016-.042.017-.042.015-.041.013-.043.012-.043.01-.044.009-.043.009-.087.004-.087.002-.086-.005-.085-.007-.085-.013-.084-.016-.082-.02-.082-.024-.08-.029-.079-.032-.077-.036-.076-.04-.074-.043-.073-.045-.07-.052-.069-.053-.067-.057-.063-.06-.061-.064-.06-.067-.056-.07-.054-.072-.05-.076-.05-.078-.044-.082-.042-.085-.038-.087-.035-.09-.031-.092-.028-.095-.026-.097-.019.038-.01.036-.014.038-.013.036-.015.037-.018.034-.02.037-.018.034-.023.034-.024.035-.023.031-.027.034-.028.03-.029.03-.03.03-.03.03-.033.026-.035.028-.034.024-.035.024-.038.024-.037.021-.038.02-.04.02-.04.016-.042.017-.042.013-.043.014-.045.01-.044.011-.045.008-.046.004-.046.008-.034.008-.035.009-.034.009-.034.024-.065.012-.033.015-.033.014-.031.017-.031.016-.03.018-.031.019-.03.02-.028.042-.057.022-.027.023-.026.023-.027.025-.025.024-.024.028-.024.025-.024.03-.022.026-.02.029-.022.03-.02.03-.018.03-.02.033-.016.031-.016.032-.017-.033-.01-.035-.012-.033-.012-.033-.013-.032-.015-.034-.015-.03-.016-.032-.017-.03-.018-.03-.019-.029-.02-.029-.02-.028-.021-.028-.022-.027-.023-.025-.023-.026-.026-.024-.025-.025-.025-.024-.027-.02-.027-.024-.028-.02-.028-.019-.029-.02-.03-.018-.029-.033-.062-.015-.032-.015-.032-.012-.033-.014-.033-.014-.05-.016-.048-.018-.048-.02-.044-.023-.045-.024-.044-.026-.042-.027-.042-.03-.038-.03-.039-.034-.037-.033-.036-.036-.033-.036-.032-.038-.032-.04-.028-.04-.028-.043-.025-.042-.024-.044-.022-.045-.021-.046-.018-.047-.018-.048-.013-.048-.014-.049-.01-.05-.01-.05-.005-.051-.005-.052-.003h-.05l-.052.004z" stroke="#000" stroke-linejoin="round" style="stroke:#000;fill:none;stroke-width:2;stroke-miterlimit:4;stroke-dasharray:none"/>
 <path d="m21.8 6.55-.019-.016.035-.045.033-.046.032-.05.029-.048.026-.052.025-.052.021-.052.022-.055.018-.055.015-.056.013-.056.011-.057.01-.056.005-.058.005-.058.001-.057-.001-.053-.003-.054-.006-.053-.008-.054-.01-.053-.013-.052-.013-.054-.017-.052-.018-.05-.02-.05-.021-.05-.024-.05-.026-.047-.027-.046-.029-.044-.03-.044-.014-.014-.012-.017-.01-.018-.01-.017-.007-.02-.005-.02-.004-.018v-.042l.003-.02.006-.019.006-.018.01-.017.01-.017.01-.015.014-.014.015-.014.015-.01.017-.01.018-.01.018-.006.02-.006.02-.003h.039l.018.003.017.004.016.005.017.006.03.018.015.01.012.013.012.011.013.014.009.015.009.016.007.015.006.018.006.016-.01-.041-.01-.044-.015-.041-.015-.042-.016-.041-.018-.042-.04-.08-.045-.078-.026-.038-.025-.036-.028-.036-.027-.035-.029-.033-.03-.033-.066-.06-.069-.053-.07-.052-.073-.048-.074-.043-.076-.04-.077-.035-.079-.033-.08-.029-.082-.023-.081-.021-.083-.018-.084-.013-.083-.01-.084-.005-.085-.003-.085.001-.085.006-.083.01-.084.013-.084.017-.083.02-.081.025-.082.028-.08.032-.079.035-.077.04-.076.044-.075.047-.073.05-.07.056-.069.058.01-.046.008-.045.008-.046.004-.045.003-.046v-.09l-.003-.045-.004-.045-.006-.044-.01-.045-.008-.043-.013-.043-.012-.042-.015-.043-.016-.042-.019-.04-.02-.04-.02-.039-.023-.038-.024-.037-.026-.038-.027-.035-.029-.036-.03-.033-.032-.033-.033-.03-.035-.032-.073-.056-.039-.027-.04-.024-.028-.02-.027-.023-.027-.022-.028-.024-.025-.024-.025-.025-.024-.026-.022-.025-.023-.027-.021-.026-.021-.029-.02-.028-.02-.03-.018-.03-.016-.03-.017-.029-.017-.031-.013-.031-.014-.032-.014-.032-.01-.033-.012-.033-.01-.032-.009-.035-.007-.034-.008-.034-.006-.034-.004-.034-.003-.035-.003-.035-.002-.035v-.047l-.021.022-.021.022-.023.023-.023.02-.024.021-.024.02-.024.019-.026.02-.025.017-.026.016-.026.018-.054.03-.03.015-.026.015-.029.012-.029.013-.03.01-.029.012-.03.01-.03.01-.03.009-.03.007-.031.006-.032.007-.03.005-.032.004-.032.005-.031.003-.032.001-.032.002-.032.001-.033-.001-.067-.006-.031-.002-.052-.008-.05-.006-.051-.003-.052-.002h-.05l-.051.003-.05.005-.05.007-.048.009-.049.01-.048.014-.047.015-.045.017-.046.018-.045.021-.044.022-.042.026-.043.025-.04.028-.04.03-.038.031-.036.033-.036.034-.033.036-.032.037-.032.039-.029.04-.028.041-.026.044-.024.044-.021.046-.022.048-.001-.058-.005-.057-.006-.056-.009-.055-.012-.055-.013-.055-.016-.054-.018-.052-.02-.052-.022-.05-.024-.05-.027-.049-.028-.049-.03-.046-.032-.044-.033-.045-.036-.043-.036-.042-.04-.038-.04-.04-.041-.036-.043-.036-.045-.033-.045-.032-.047-.03-.049-.028-.05-.026-.051-.025-.052-.022-.053-.02-.054-.017-.056-.017-.018-.001-.02-.005-.016-.006-.019-.007-.016-.01-.015-.01-.014-.011-.014-.014-.012-.013-.01-.015-.01-.016-.008-.018-.006-.017-.005-.019-.003-.018v-.04l.003-.02.012-.038.01-.016.01-.017.01-.016.014-.013.015-.014.015-.012.017-.008.018-.01.018-.007.02-.004.02-.003.02-.002.019.002.018.001.017.005.018.006.016.006.017.007.015.009.015.009-.036-.027-.036-.027-.038-.023-.038-.024-.04-.023-.04-.022-.04-.02-.042-.017-.042-.018-.042-.015-.044-.015-.043-.012-.043-.01-.044-.009-.044-.007-.044-.006-.09-.005h-.087l-.088.003-.086.01-.086.011-.083.015-.083.02-.082.025-.082.026-.078.032-.077.034-.075.038-.074.04-.07.045-.07.048-.067.05-.065.054-.062.058-.059.058-.057.062-.053.066-.052.067-.048.07-.045.071-.041.074-.04.078-.034.079-.032.08-.027.083-.025.083-.02.087-.014.089-.012-.046-.013-.045-.015-.043-.015-.043-.018-.043-.02-.04-.02-.04-.023-.04-.023-.038-.026-.037-.027-.037-.029-.034-.029-.035-.03-.032-.032-.032-.033-.03-.035-.029-.036-.028-.036-.026-.037-.025-.039-.024-.04-.02-.04-.021-.04-.02-.043-.017-.043-.015-.043-.015-.044-.012-.046-.01-.045-.01-.047-.007-.047-.006-.035-.006-.07-.015-.032-.01-.035-.01-.033-.01-.034-.014-.031-.014-.034-.015-.031-.014-.032-.017-.03-.018-.03-.017-.031-.02-.029-.02-.028-.02-.03-.022-.026-.022-.026-.024-.027-.024-.025-.024-.025-.027-.023-.025-.024-.027-.021-.028-.043-.057-.02-.03-.018-.029-.018-.031-.016-.031-.015-.032-.011.035-.012.032-.012.033-.012.033-.015.032-.016.033-.015.031-.018.03-.018.031-.018.03-.02.028-.02.03-.022.027-.023.028-.022.027-.025.025-.024.025-.026.026-.025.023-.027.023-.028.022-.028.02-.03.022-.028.02-.03.018-.03.018-.032.018-.032.016-.032.015-.033.014-.033.013-.033.012-.05.015-.05.016-.047.02-.047.019-.045.022-.044.025-.043.026-.042.026-.04.03-.039.031-.036.032-.036.034-.067.071-.06.078-.027.04-.026.041-.024.042-.023.043-.02.045-.02.046-.016.046-.014.048-.013.047-.01.048-.008.049-.006.05-.005.05-.001.05v.052l.003.05-.023-.043-.024-.041-.024-.042-.028-.04-.028-.039-.03-.037-.03-.037-.033-.036-.033-.035-.033-.033-.036-.033-.037-.031-.038-.03-.039-.028-.04-.027-.04-.027-.04-.023-.043-.024-.044-.021-.044-.02-.044-.02-.045-.016-.046-.017-.093-.027-.047-.01-.049-.01-.048-.008-.048-.006-.049-.004-.05-.003h-.08l-.032.001-.033.002-.063.006-.032.004-.032.003-.029.005-.018.006-.02.004-.018.003-.02.002-.02-.002-.02-.003-.02-.006-.018-.006-.018-.009-.017-.009-.015-.011-.015-.014-.012-.013-.012-.017-.01-.016-.01-.018-.006-.018-.004-.019-.003-.02-.002-.02.002-.02.003-.019.004-.018.006-.017.01-.017.01-.015.01-.013.014-.013.03-.021.017-.01.018-.008.018-.006.02-.006.02-.004.02-.003.013-.002h.015l.014-.001h.013l-.09.003-.178.009-.089.004-.089.008-.088.007-.089.009-.088.012-.087.016-.085.02-.082.028-.077.032-.075.038-.072.041-.068.046-.065.05-.06.056-.06.06-.054.062-.05.065-.048.07-.044.072-.04.074-.037.077-.033.08-.03.082-.026.084-.023.084-.018.087-.015.087-.01.088-.008.09-.003.09v.09l.004.09.008.09.012.088.017.09.02.087.023.087-.036-.03-.038-.027-.039-.025-.04-.024-.04-.022-.041-.021-.042-.018-.043-.018-.042-.015-.044-.013-.044-.012-.044-.01-.045-.01-.044-.007-.045-.004-.046-.003-.043-.003H4.89l-.09.006-.046.004-.045.008-.044.009-.045.01-.044.012-.044.013-.043.017-.042.017-.042.02-.043.02-.04.023-.04.024-.033.016-.032.016-.033.015-.07.027-.034.01-.073.021-.036.01-.037.007-.037.006-.037.004-.037.005-.037.003-.038.001h-.07l-.034-.001-.033-.002-.035-.004-.033-.005-.035-.004-.033-.006-.034-.008-.033-.007-.033-.01-.032-.01-.033-.01-.032-.012-.032-.013-.031-.014-.03-.013.019.052.033.11.014.058.01.058.008.058.003.03.001.028.002.03v.068l-.003.042-.003.04-.006.042-.008.04-.007.041-.01.04-.011.04-.012.04-.014.04-.015.038-.017.037-.016.038-.019.035-.02.036-.02.034-.03.042-.028.043-.026.043-.022.045-.023.044-.018.046-.018.047-.015.047-.012.046-.013.05-.007.047-.008.047-.004.05-.002.047-.001.05.001.048.005.048.006.048.007.049.01.047.012.048.013.046.017.046.018.046.02.045.022.044.025.043.025.044.029.041.03.04.032.04.035.04H3.06l-.055.004-.055.006-.055.007-.054.009-.053.012-.055.015-.051.016-.052.018-.051.02-.05.022-.048.023-.047.026-.047.026-.047.03-.044.03-.044.033-.04.032-.041.036-.04.037-.038.039-.036.039-.035.041-.033.043-.032.043-.03.045-.027.046-.026.048-.024.049-.023.049-.02.05-.018.053-.009.035-.006.016-.009.017-.009.015-.01.015-.013.013-.013.012-.014.01-.015.01-.017.01-.016.007-.017.006-.036.006-.02.002-.02-.002-.02-.003-.02-.004-.018-.008-.018-.007-.017-.01-.015-.013-.015-.013-.012-.013-.013-.017-.01-.016-.01-.016-.005-.02-.005-.018-.003-.02-.001-.021v-.018l.003-.02.004-.019.006-.018.008-.017.009-.017.01-.016.011-.016-.029.032-.028.034-.028.036-.025.037-.025.038-.022.038-.023.039-.02.04-.02.042-.017.04-.016.043-.015.042-.013.043-.012.043-.01.043-.009.043-.009.086-.004.087-.002.086.005.086.007.085.013.083.016.082.021.082.025.08.027.079.032.077.036.076.04.074.043.073.047.07.05.068.053.067.057.064.06.061.064.06.067.056.07.054.072.05.076.048.078.046.082.042.085.037.086.036.09.03.093.03.094.023.098.02-.038.011-.038.012-.072.03-.037.018-.036.019-.035.02-.034.022-.035.023-.034.026-.033.025-.032.028-.031.028-.03.03-.03.031-.03.033-.027.034-.026.034-.025.036-.024.037-.023.038-.021.038-.021.04-.019.04-.018.042-.015.042-.015.043-.012.043-.01.045-.011.044-.008.046-.004.045-.008.036-.007.034-.01.032-.009.035-.01.032-.012.033-.014.033-.014.033-.015.03-.015.032-.018.031-.017.03-.02.03-.019.03-.02.028-.02.028-.023.027-.023.027-.024.026-.024.026-.026.023-.026.024-.027.024-.027.022-.028.023-.03.02-.029.02-.06.038-.032.017-.032.016-.033.016.035.01.035.013.033.012.033.013.032.015.032.015.032.016.031.017.03.017.03.02.03.02.028.02.03.02.026.023.027.022.026.024.026.025.024.024.024.027.023.027.023.026.02.027.022.028.02.03.018.03.018.03.018.03.015.032.017.031.013.033.014.033.012.033.014.049.016.049.019.046.02.046.022.045.024.044.026.042.027.04.03.04.03.039.034.037.033.034.035.034.038.033.037.031.04.029.04.028.043.025.042.024.044.022.046.021.045.018.047.016.047.015.048.014.05.01.05.009.05.006.05.004.051.003h.052l.053-.003.02.015-.036.046-.033.046-.06.099-.026.05-.026.054-.022.052-.02.055-.018.055-.015.055-.014.056-.012.057-.008.056-.007.058-.003.057-.002.058.002.053.003.054.006.053.007.054.01.054.012.052.015.053.015.052.018.05.021.051.021.05.024.048.026.048.027.046.03.045.03.043.013.015.012.016.01.018.01.018.007.02.005.018.003.02.001.02-.001.021-.003.02-.005.019-.006.018-.009.018-.01.016-.012.015-.013.015-.015.013-.015.01-.016.011-.019.009-.018.006-.02.006-.02.003h-.038l-.019-.003-.016-.003-.017-.006-.016-.006-.03-.018-.016-.01-.012-.01-.012-.014-.012-.013-.01-.014-.008-.015-.008-.017-.007-.016-.005-.016.01.041.011.043.014.042.015.042.017.041.016.042.02.04.021.039.023.038.022.039.052.074.027.036.027.034.029.033.03.033.067.06.068.054.07.05.074.048.074.043.075.04.077.036.079.033.08.028.08.026.084.02.081.017.083.013.085.01.085.007H4.5l.084-.006.085-.01.083-.013.085-.016.082-.02.083-.025.08-.028.08-.033.079-.035.078-.04.076-.044.074-.046.073-.052.07-.053.069-.06-.01.046-.008.045-.006.046-.005.046-.003.045-.001.046.001.044.003.045.005.045.006.044.007.045.01.043.011.043.014.042.015.043.017.041.018.04.02.04.02.04.023.038.025.037.025.037.028.036.028.034.03.034.032.033.034.031.034.032.035.028.038.028.04.025.039.026.028.02.028.023.027.022.027.024.024.024.026.024.024.025.023.027.023.026.02.027.022.028.02.029.02.03.017.028.017.03.017.03.015.032.015.031.014.031.012.033.012.033.01.033.01.032.01.034.007.035.008.034.005.034.006.034.003.035.003.035.001.034v.046l.021-.023.021-.023.023-.02.023-.021.024-.021.023-.02.025-.019.025-.017.025-.018.028-.018.025-.017.028-.016.027-.015.027-.015.057-.026.058-.024.03-.01.03-.011.03-.009.03-.009.031-.007.03-.008.032-.006.03-.004.032-.006.032-.003.032-.004.095-.004.032.001.035.003.033.004.03.001.052.007.05.006.052.005.052.001h.05l.051-.003.05-.004.048-.008.05-.009.049-.011.047-.012.047-.015.046-.018.046-.018.045-.02.044-.025.042-.023.043-.026.039-.028.04-.03.039-.03.036-.034.035-.034.035-.035.031-.038.032-.038.029-.04.027-.042.027-.043.023-.045.023-.046.02-.048.002.058.005.057.006.056.009.056.012.055.014.055.015.052.018.053.02.052.022.05.024.051.026.048.029.048.03.047.032.045.033.044.036.043.037.042.038.039.04.038.043.038.042.035.09.066.048.03.048.028.05.025.052.025.05.023.054.019.054.02.055.014.02.003.018.005.018.006.018.007.015.009.017.01.013.012.014.012.012.015.01.015.01.016.007.017.008.018.004.019.003.018v.04l-.009.038-.006.018-.009.018-.01.017-.012.016-.013.013-.015.014-.015.012-.016.008-.019.01-.018.005-.02.006-.02.003-.02.002-.018-.002-.019-.003-.018-.003-.033-.011-.017-.008-.015-.009-.015-.01.073.053.038.025.037.023.04.023.04.021.041.02.041.017.043.018.042.015.042.015.044.012.044.01.044.01.044.007.044.006.087.004.09.002.087-.005.086-.007.085-.014.085-.015.083-.02.082-.024.08-.027.079-.031.077-.034.075-.038.074-.041.072-.045.07-.047.066-.05.063-.054.064-.057.059-.06.056-.062.054-.064.051-.068.049-.07.045-.072.041-.074.04-.077.034-.079.03-.08.03-.084.022-.083.02-.086.016-.09.01.047.014.044.014.043.017.044.018.041.018.042.021.04.023.039.024.038.026.037.025.036.03.036.03.034.03.033.031.031.034.03.034.03.035.026.038.027.036.024.04.024.039.022.04.02.042.019.042.017.044.015.044.015.044.012.045.01.045.01.047.007.047.006.035.006.036.007.033.01.035.01.033.01.035.012.034.012.031.013.034.015.031.015.03.018.032.016.03.018.058.039.029.02.029.023.027.022.026.023.025.023.026.026.024.025.024.025.023.027.021.027.043.056.02.03.017.03.019.03.016.03.015.033.01-.034.011-.034.013-.033.013-.032.015-.033.015-.033.016-.031.018-.03.016-.031.02-.03.02-.028.042-.057.023-.026.022-.027.025-.025.024-.026.025-.025.026-.024.055-.044.028-.021.03-.021.028-.02.03-.017.03-.018.032-.018.032-.016.032-.015.066-.027.035-.012.05-.015.048-.016.047-.018.047-.02.046-.023.043-.024.043-.025.042-.028.04-.029.039-.03.072-.066.034-.036.033-.036.03-.038.03-.039.028-.04.025-.042.024-.041.023-.043.02-.045.018-.045.017-.046.015-.047.012-.048.01-.048.01-.049.006-.05.004-.05.001-.05v-.05l-.003-.053.023.045.023.042.025.041.028.04.027.04.03.038.03.036.032.035.033.036.035.033.036.032.037.032.038.03.037.028.041.026.04.026.042.023.042.024.043.021.043.02.046.019.045.018.045.014.047.015.094.024.049.009.048.008.048.006.049.004.05.003h.08l.032-.001.033-.002.032-.003.031-.003.032-.004.032-.003.029-.005.018-.004.02-.005.018-.003.02-.001.019.001.021.003.02.005.018.007.018.009.017.009.015.012.015.013.012.014.012.016.01.016.009.017.007.019.005.02.003.019.001.02-.001.02-.003.02-.005.018-.006.018-.007.017-.011.016-.01.015-.014.013-.014.012-.015.01-.017.011-.016.008-.018.006-.02.004-.02.003-.021.001h-.059.136l.047.002.092.003.094.003h.09l.045-.001.043-.003.043-.005.042-.006.04-.007.039-.01.084-.03.082-.03.079-.038.075-.04.073-.043.071-.049.067-.05.063-.055.062-.058.058-.061.054-.063.051-.067.049-.068.044-.072.04-.074.038-.074.035-.078.03-.08.028-.08.024-.082.02-.083.015-.085.012-.085.009-.086.004-.086v-.088l-.003-.088-.007-.088-.012-.087-.016-.087-.02-.087-.025-.087.038.03.038.027.039.025.04.024.04.022.04.021.043.018.043.018.042.015.044.013.044.012.043.01.044.01.046.007.044.004.045.003.045.003h.046l.045-.003.045-.003.046-.004.043-.008.046-.009.044-.01.044-.012.043-.013.044-.017.043-.018.042-.019.042-.02.041-.023.04-.024.031-.016.033-.017.034-.014.07-.027.034-.01.036-.013.073-.017.036-.008.037-.006.037-.004.037-.005.037-.003.037-.001.038-.002.033.002.035.001.033.002.035.004.033.005.033.004.035.006.067.015.031.009.034.01.031.01.034.013.032.013.03.013.032.014-.02-.052-.018-.055-.015-.055-.014-.058-.01-.058-.008-.058-.003-.03-.002-.028-.001-.03-.001-.028v-.04l.004-.042.003-.04.006-.042.006-.04.01-.042.008-.04.012-.04.013-.04.013-.039.015-.038.017-.038.017-.037.018-.037.02-.034.019-.034.03-.042.029-.043.026-.043.022-.045.022-.044.02-.047.017-.046.016-.047.012-.048.01-.047.01-.048.007-.048.004-.049.002-.047.001-.05-.001-.049-.005-.047-.006-.048-.007-.049-.01-.047-.011-.047-.016-.047-.015-.046-.018-.046-.02-.045-.022-.045-.024-.043-.026-.043-.029-.041-.03-.04-.032-.04-.035-.038h.056l.056-.001.056-.003.056-.006.055-.008.054-.01.053-.012.053-.014.053-.016.051-.018.05-.02.05-.021.05-.024.047-.025.047-.027.045-.03.046-.03.042-.032.042-.035.041-.034.04-.037.037-.039.037-.04.034-.04.034-.043.031-.043.03-.046.028-.046.026-.048.024-.048.022-.05.02-.05.018-.053.003-.018.006-.018.006-.016.01-.016.009-.015.01-.015.012-.013.014-.012.014-.01.015-.011.015-.01.016-.007.019-.006.018-.004.018-.002h.04l.02.004.02.004.018.007.018.008.017.01.015.012.015.014.012.013.012.015.011.016.008.018.007.02.005.017.003.021.001.02-.001.019-.002.02-.004.018-.006.018-.008.018-.009.017-.01.016-.012.016.03-.032.029-.035.027-.034.025-.037.025-.037.022-.039.023-.039.02-.04.02-.041.016-.042.017-.042.015-.041.013-.043.012-.043.01-.044.009-.043.009-.087.004-.087.002-.086-.005-.085-.007-.085-.013-.084-.016-.082-.02-.082-.024-.08-.029-.079-.032-.077-.036-.076-.04-.074-.043-.073-.045-.07-.052-.069-.053-.067-.057-.063-.06-.061-.064-.06-.067-.056-.07-.054-.072-.05-.076-.05-.078-.044-.082-.042-.085-.038-.087-.035-.09-.031-.092-.028-.095-.026-.097-.019.038-.01.036-.014.038-.013.036-.015.037-.018.034-.02.037-.018.034-.023.034-.024.035-.023.031-.027.034-.028.03-.029.03-.03.03-.03.03-.033.026-.035.028-.034.024-.035.024-.038.024-.037.021-.038.02-.04.02-.04.016-.042.017-.042.013-.043.014-.045.01-.044.011-.045.008-.046.004-.046.008-.034.008-.035.009-.034.009-.034.024-.065.012-.033.015-.033.014-.031.017-.031.016-.03.018-.031.019-.03.02-.028.042-.057.022-.027.023-.026.023-.027.025-.025.024-.024.028-.024.025-.024.03-.022.026-.02.029-.022.03-.02.03-.018.03-.02.033-.016.031-.016.032-.017-.033-.01-.035-.012-.033-.012-.033-.013-.032-.015-.034-.015-.03-.016-.032-.017-.03-.018-.03-.019-.029-.02-.029-.02-.028-.021-.028-.022-.027-.023-.025-.023-.026-.026-.024-.025-.025-.025-.024-.027-.02-.027-.024-.028-.02-.028-.019-.029-.02-.03-.018-.029-.033-.062-.015-.032-.015-.032-.012-.033-.014-.033-.014-.05-.016-.048-.018-.048-.02-.044-.023-.045-.024-.044-.026-.042-.027-.042-.03-.038-.03-.039-.034-.037-.033-.036-.036-.033-.036-.032-.038-.032-.04-.028-.04-.028-.043-.025-.042-.024-.044-.022-.045-.021-.046-.018-.047-.018-.048-.013-.048-.014-.049-.01-.05-.01-.05-.005-.051-.005-.052-.003h-.05l-.052.004z" fill-rule="evenodd" style="stroke:none;stroke-width:2;stroke-miterlimit:4;stroke-dasharray:none;fill:#ffcd00"/>
</svg>
