<svg width="20" height="20" version="1.0" xmlns="http://www.w3.org/2000/svg">
 <path d="M.853 1.044H6.14c.41.255.894.455 1.421.61.527.155 1.14-.201 1.73-.127.295.038.533.254.834.26.3.006.664-.198.963-.19.6.016.78.594 1.702.51.553-.05.953-.353 1.501-.554.549-.201 1.246-.274 1.825-.267 1.108.013 2.217-.549 3.325-.786l.058 7.753c-.584.388-.146 1.04-.185 1.644-.022.33-.067.673-.322.849-.255.175-.23.591-.11 1.068.158.632-.104 1.265-.23 1.884-.126.62-.381 1.202-.886 1.708-.494.495-1.231 1.33-2.103 1.46-1.125.168-1.5.68-2.105 1.33-.279.3-.408.386-1.06.443-.362.032-.268.31-1.078.357-.798.047-1.54.505-2.015.504-1.332-.002-2.426-1.756-4.182-2-.877-.12-1.689-.505-2.483-.924-.4-.21-.782-.628-1.223-.704-.531-.09-.647-.518-1.018-.698V1.417c-.012-.253.149-.377.353-.373Z" fill="#fff" stroke="#000" stroke-linecap="round" stroke-linejoin="round" stroke-width="1.254" style="stroke:#000;stroke-width:1;stroke-miterlimit:4;stroke-dasharray:none"/>
</svg>
