<svg width="25" height="20" xmlns="http://www.w3.org/2000/svg">
 <path d="M19.16 19c-.237 0-.03-.374.246-.87.395-.663.707-2.112.242-2.13H3.306C3 16 3 16 2.998 15.716c-.003-.285.003.34.003-4.13V7.295c-.072-.299-.362-.566-.482-.844-.068-.104-.08-.239-.08-.873v-.749l-.38-.76c-.414-.826-.587-1.253-.641-1.576-.02-.113-.127-.391-.24-.617C.933 1.39 1.14 1 1.368 1H19.65c.109 0 .357.113.39.267.098.451-.078.507.092.873.213.46.075.574.229.812.092.144.274.46.405.703.13.242.311.563.402.713.182.302.328.702.402 1.106.045.242.193.541.445.896.137.193.522.968.633 1.275.084.232.093.392.103 1.74.007.878.034 1.618.067 1.81.07.414.342 1.201.489 1.414.092.135.11.214.103.446-.007.205.019.343.094.51.3.673.388.922.414 1.172.041.393 0 .546-.257.952-.124.197-.249.448-.276.556-.118.47-.306.775-.619 1.008-.176.132-.323.634-.409.857-.047.121-.149.27-.15.491-.004.427.029.399-.4.399H19.16z" style="stroke:#000;stroke-width:2;stroke-miterlimit:4"/>
 <path d="M19.16 19c-.237 0-.03-.374.246-.87.395-.663.707-2.112.242-2.13H3.306C3 16 3 16 2.998 15.716c-.003-.285.003.34.003-4.13V7.295c-.072-.299-.362-.566-.482-.844-.068-.104-.08-.239-.08-.873v-.749l-.38-.76c-.414-.826-.587-1.253-.641-1.576-.02-.113-.127-.391-.24-.617C.933 1.39 1.14 1 1.368 1H19.65c.109 0 .357.113.39.267.098.451-.078.507.092.873.213.46.075.574.229.812.092.144.274.46.405.703.13.242.311.563.402.713.182.302.328.702.402 1.106.045.242.193.541.445.896.137.193.522.968.633 1.275.084.232.093.392.103 1.74.007.878.034 1.618.067 1.81.07.414.342 1.201.489 1.414.092.135.11.214.103.446-.007.205.019.343.094.51.3.673.388.922.414 1.172.041.393 0 .546-.257.952-.124.197-.249.448-.276.556-.118.47-.306.775-.619 1.008-.176.132-.323.634-.409.857-.047.121-.149.27-.15.491-.004.427.029.399-.4.399H19.16z" style="fill:#fff"/>
</svg>
