<svg height="20" width="24" xmlns="http://www.w3.org/2000/svg">
 <path style="fill:#000;stroke-width:.037" d="M11.162-.004c-.326.004-.654.34-.525.668-.236.057-.555.223-.557.547a81.017 81.017 0 0 0-.002 1.59c.018.249.208.4.426.506.03.014.02.068.008.1-.036.09-.23.35-.989.37a60.222 60.222 0 0 0-1.382-.254c-.82-.14-1.626-.293-2.276-.283-.097-.01-.647-.074-1.416-.052-.824.022-1.798.032-2.65.72-.054.042-1.174.909-1.342 2.528-.102.98-.24 2.073-.197 3.115.034.84.288 1.68.838 2.363l.482 2.465c-.283.373-.577.91-.607 1.672-.03.749-.04 1.387.076 1.978.058.296.141.596.375.903.233.307.71.568 1.135.568h18.82c.382 0 .843-.225 1.078-.512.235-.287.32-.569.385-.847.131-.558.159-1.182.185-2.02a2.552 2.552 0 0 0-.603-1.76l.478-2.45c.531-.66.756-1.467.813-2.311.071-1.07-.031-2.223-.178-3.207-.236-1.585-1.295-2.456-1.32-2.477-.856-.7-1.837-.706-2.666-.728-.769-.022-1.319.042-1.416.052-.65-.01-1.458.142-2.278.283-.736.127-1.25.229-1.38.254-.76-.02-.97-.32-.987-.37-.026-.078.056-.12.088-.134.344-.143.377-.535.346-.851-.004-.418.01-.837-.01-1.254-.032-.28-.296-.472-.55-.492.103-.249-.058-.521-.296-.623-.257-.1-.54-.03-.81-.051-.344 0-.688.002-1.031-.002a.458.458 0 0 0-.065-.004z"/>
 <path style="fill:#fff;fill-opacity:1;fill-rule:nonzero;stroke:none;stroke-width:2.11042;stroke-miterlimit:4;stroke-dasharray:none" d="m11.217.502-.035.002c-.027.002-.056.006-.067.02 0 0-.045.047.035.142 0 0 .358.509.432.91 0 0-.187-.015-.768-.346 0 0-.115-.09-.175-.056 0 0-.06.014-.06.101v1.448s-.006.074.048.101c0 0 .052.03.123-.023 0 0 .432-.342.863-.48 0 0-.18.534-.56.898 0 0-.08.09.054.144l.393.002c.001.225-.134.533-.184.635-.095.198-.581.79-1.822.79 0 0-2.851-.566-3.621-.552 0 0-2.568-.289-3.467.455 0 0-.824.585-.955 1.846-.206 1.983-.512 4.245.608 5.08l.593 3.035s-.642.498-.68 1.436c-.057 1.445.02 2.41.587 2.41h18.82c.494 0 .596-.766.648-2.41.03-.91-.68-1.436-.68-1.436l.594-3.035c.984-.663.886-3.207.608-5.08-.187-1.254-.955-1.846-.955-1.846-.898-.744-3.467-.455-3.467-.455-.77-.014-3.621.551-3.621.551-1.24 0-1.7-.606-1.822-.789a1.574 1.574 0 0 1-.184-.635l.393-.002c.135-.054.052-.144.052-.144-.381-.364-.56-.899-.56-.899.432.139.865.48.865.48.07.055.121.024.121.024.054-.027.05-.101.05-.101V1.275c0-.087-.06-.101-.06-.101-.06-.034-.175.056-.175.056-.58.331-.77.346-.77.346.074-.401.432-.91.432-.91.08-.095.037-.143.037-.143-.022-.026-.115-.02-.115-.02h-1.538l-.015-.001z"/>
</svg>
