<svg viewBox="0 0 600 600" width="20" height="20" xmlns="http://www.w3.org/2000/svg">
 <path d="M600 300a300 300 0 1 1-600 0 300 300 0 1 1 600 0z" style="fill:#006747"/>
 <path d="M300 62.5C168.83 62.5 62.5 168.83 62.5 300S168.83 537.5 300 537.5 537.5 431.17 537.5 300 431.17 62.5 300 62.5zm0 18.269c121.08 0 219.23 98.153 219.23 219.23S421.077 519.229 300 519.229 80.77 421.076 80.77 299.999 178.923 80.769 300 80.769z" fill="#fff"/>
 <g fill="#fff">
  <path d="m211.886 153.62 1.07 193.635c-2.644 2.309-5.931 5.637-6.04 8.736-.11 3.1 5.184 7.663 4.293 13.833-4.287-.937-6.803 4.04-8.638 7.255 1.456 7.128-2.534 15.56 4.813 21.278-7.073 1.63-14.04 3.397-13.966 14.279 5.176 5.18 4.12 10.796 2.812 16.43-20.537 22.568-15.264 41.828-14.74 49.32 6.064-2.895 11.399-5.461 15.645-5.04 6.76-1.428 11.316.843 21.295 5.711 12.482-8.419 15.65-6.672 22.788-6.976 10.996-.468 14.528.858 21.357 2.226 6.83 1.37 10.966-8.055 17.656-10.706 8.417-3.334 15.841-.951 24.497-4.711 8.655-3.76 10.084-16.547 14.81-25.976 12.09-3.645 18.741-11.6 24.373-19.995l39.826-1.122c17.734-5.206 25.97-10.95 25.202-20.052-.768-9.1-6.035-10.219-9.372-15.14 3.907-1.271 2.55-7.001-.484-7.344.059-12.992 8.86-15.537 7.866-29.752l-2.186-197.708c-11.27-.017-22.414-6.934-25.774-11.915-31.212 7.416-62.997 6.622-94.813 5.383-16.383 11.503-38.295 27.104-72.291 18.356z"/>
  <path d="M278.154 121.718c-2.68.246-4.273.556-4.6.962-2.616 3.254-33.57 28.685-55.928 15.534-6.468-.627-4.043 9.294 1.555 10.383 30.214 5.218 47.296-7.8 62.577-18.529 31.816 1.239 70.054 2.356 101.266-5.06 2.66 3.943 10.125 8.227 18.742 10.213 4.006-.275 1.569-.074 5.252-.276l-.949-13.57c-38.671.47-109.156-1.38-127.915.343z"/>
 </g>
</svg>
