<svg width="20" height="20" xmlns="http://www.w3.org/2000/svg">
 <path d="M1.522 10.159h-.89s-.16-.146-.128-.379c0-.203 1.241-2.066 1.336-2.706V5.968c0-.407.86-1.135.955-1.746.16-.436.579-1.28 1.368-1.542.35-.116.446-.407.51-.873.19-.407 2.04-.85 3.436-1.077C9.844.45 11.704.672 12.627.79c.579.07 4.39 2.095 4.804 5.762.096.844 1.368 2.008 1.75 2.27l-.032.436.287.233c-.096 1.571-1.56 3.113-2.482 3.259-.528.081-.835.445-.986.931-.19.608.053 1.174.636 1.513l.414-.145c.19-.233 1.259-.8 1.209-.35-.033.296-.382.32-.573.553.318.379.064 1.135.064 1.135-.668.291-.287.524-.287.524.318.698 1.114.64 1.687 1.251.312.338.37.578.382 1.339H1.936v-.262c.032-.727 3.71-2.694 3.882-4.004.134-1.048-2.227-1.368-3.723-1.467 0 0-.553-.075-.573-.378-.044-.396.147-.64.16-.844.019-.262-.032-.931-.032-.931l.127-.407-.16-.175.16-.495s-.032-.378-.255-.378z" fill="#fff" stroke="#000" stroke-width="1.317" style="stroke:#000;stroke-width:1;stroke-linejoin:round;stroke-miterlimit:4;stroke-dasharray:none"/>
</svg>
