<svg width="22" height="20" xmlns="http://www.w3.org/2000/svg">
 <path d="m3.125.5.375 3h-3l2 16h17l2-16h-3l.375-3z" fill="#fff" stroke="#000" style="fill:#006747;stroke:#fff"/>
 <path style="fill:#fff;stroke-width:11.7895" d="M4.04 12h1.808c.235 0 .447.043.64.126.2.078.368.19.506.339.145.143.254.32.327.53.078.208.117.438.117.69 0 .548-.139.966-.416 1.253-.27.286-.662.428-1.174.428h-.94V18H4.04Zm4.237 0h.85v6h-.85Zm2.188 0h.867v2.4l1.382-2.4h1.003l-1.256 2.104L13.86 18h-.912l-1.066-2.93-.551 1.014V18h-.867zm4.411 0h2.848v.842h-1.979v1.513h1.257v.825h-1.257v1.978h2.214V18h-3.083zm-9.968.842v1.701h.895c.253 0 .445-.075.578-.225.138-.149.207-.36.207-.634 0-.25-.071-.455-.216-.61a.74.74 0 0 0-.569-.232Z"/>
 <path style="fill:#fff;stroke-width:11.7898" d="M2.927 5h3.027v.783H4.871v5.112h-.863V5.783H2.927ZM6.77 5h.852v4.24c0 .282.076.508.23.678a.78.78 0 0 0 .605.255c.23 0 .42-.085.567-.255.154-.17.232-.396.232-.678V5h.852v4.135c0 .117-.005.224-.017.318a1.785 1.785 0 0 1-.036.263 1.963 1.963 0 0 1-.178.457c-.149.24-.352.44-.613.597-.254.153-.523.23-.807.23-.296 0-.577-.077-.843-.23A1.707 1.707 0 0 1 7 10.173a1.691 1.691 0 0 1-.176-.457 3.09 3.09 0 0 1-.045-.263 5.163 5.163 0 0 1-.009-.318zm4.63 0h1.775c.231 0 .44.037.63.114.195.076.36.183.496.318.142.134.25.301.321.5.077.194.115.408.115.643 0 .352-.07.65-.213.897a1.19 1.19 0 0 1-.639.528l.852 2.895h-.88l-.788-2.77h-.818v2.77H11.4zm4.333 0h.854l1.634 3.537V5h.852v5.895h-.648l-1.838-3.95v3.95h-.854Zm-3.481.827v1.487h.88c.248 0 .436-.062.566-.186.137-.129.204-.313.204-.553 0-.229-.07-.41-.212-.545a.777.777 0 0 0-.559-.203Z"/>
</svg>
