<svg width="22" height="20" xml:space="preserve" style="overflow:visible" xmlns="http://www.w3.org/2000/svg">
 <path d="m18.697 13.446-.356-4.853-.615-.394.726-1.816-1.186.16.472-.7.24-1.547.325-.277-.775-.8H16L14.128 4.38l.493-1.387-.683-1.134-1.05.234-.512-.513L12.61 1l-4.34.87-.77-.403V1l-3.501.015L4 2H3v1.5l-1.437 1H1V5h.725l.917-.38L3 5.5v9.713l-.532.54 1.361.97.06 1.54.469.614.25-.397.32.333 1.492-.267-.286.469 4.654-.581.488-.105 4.235-.943.386.441.854-.176.353-.707v-.338l3.454-1.803Z" style="stroke:#000;stroke-width:2;stroke-linejoin:round;stroke-miterlimit:4"/>
 <path d="m18.697 13.446-.356-4.853-.615-.394.726-1.816-1.186.16.472-.7.24-1.547.325-.277-.775-.8H16L14.128 4.38l.493-1.387-.683-1.134-1.05.234-.512-.513L12.61 1l-4.34.87-.77-.403V1l-3.501.015L4 2H3v1.5l-1.437 1H1V5h.725l.917-.38L3 5.5v9.713l-.532.54 1.361.97.06 1.54.469.614.25-.397.32.333 1.492-.267-.286.469 4.654-.581.488-.105 4.235-.943.386.441.854-.176.353-.707v-.338l3.454-1.803Z" style="fill:#fff"/>
</svg>
