<svg width="21" height="20" version="1.0" xmlns="http://www.w3.org/2000/svg">
 <path style="stroke:#000;stroke-width:2;stroke-miterlimit:4;stroke-dasharray:none;stroke-opacity:1" d="M4 16H2V6.5L1 1h16.973c.445 0 .539.616.383 1.11-.178.568-.38.797-.077.89h1.628v1.343c0 .142-.039.29-.058.388l-.632 3.308c-.063.328-.059.321-.212.724l-1.627 4.267a5.929 5.929 0 0 0-.376 1.76c-.026.588.285 1.203.283 1.753l-.006 1.722c-.001.314-.186.735-.463.735H4Z"/>
 <path style="fill:#fff;stroke-width:2;stroke-miterlimit:4;stroke-dasharray:none" d="M4 16H2V6.5L1 1h16.973c.445 0 .539.616.383 1.11-.178.568-.38.797-.077.89h1.628v1.343c0 .142-.039.29-.058.388l-.632 3.308c-.063.328-.059.321-.212.724l-1.627 4.267a5.929 5.929 0 0 0-.376 1.76c-.026.588.285 1.203.283 1.753l-.006 1.722c-.001.314-.186.735-.463.735H4Z"/>
</svg>
