<svg width="20" height="20" version="1.0" xmlns="http://www.w3.org/2000/svg">
 <path style="fill:#fff;fill-opacity:1;stroke:#000;stroke-width:1;stroke-miterlimit:4;stroke-dasharray:none;stroke-opacity:1" d="M2.576 19.059c-.63.132-1.734-.053-1.702-.911-.117-1.905-.279-3.81-.367-5.715L2.514.5h14.855l2.091 10.042c.16.986-.475 1.753-.238 2.857.18.838.177 2.479-.337 3.106l-12.31-.01c-.046.95 1.057 1.225.237 2.238-.268.33-.584.42-.917.552-.263.104-.802.362-1.681.03.223-.41 1.288-1.059.33-1.127-.645-.045-.422-1.523-.966-1.55-1.058-.053-.148 2.242-1.002 2.42Z"/>
</svg>
