<svg width="25" height="20" xml:space="preserve" xmlns="http://www.w3.org/2000/svg">
 <path d="M12.584.508c-.87.007-1.786.442-2.125 1.13-1.168-.032-2.427.653-2.586 1.665-.97.087-1.627.828-1.856 1.568-.865.316-1.521 1.052-1.535 1.851-.071.495-.795.59-1.003 1.03-.33.443-.432.988-.353 1.501-.92.583-1.238 1.678-.853 2.572-.832.532-.888 1.57-.425 2.3-.543.49-.505 1.272-.093 1.813-.39.364-1 .593-1.308.986.009 1.207.018 1.361.027 2.568l24.061-.015c.006-1.147.013-1.242.018-2.389-.444-.31-.917-.597-1.308-.956.433-.57.375-1.342-.094-1.884.535-.66.399-1.64-.305-2.174-.117-.307.193-.64.103-.973-.014-.627-.39-1.222-.952-1.629a2.255 2.255 0 0 0-1.28-2.325c.047-.95-.69-1.819-1.674-2.251-.131-.762-.882-1.42-1.796-1.543-.128-.994-1.27-1.732-2.441-1.716C14.088.98 13.374.512 12.584.507Z" style="fill:#fff;stroke-width:.0419162"/>
 <path style="fill-rule:evenodd;stroke-width:.0373174" d="M16.994 3.975c1.023.105 1.686.852 1.8 1.425 1.072.207 1.764 1.207 1.53 2.104.814.397 1.399 1.414 1.19 2.222.742.658.979 1.095.76 2.382.775.535 1.03 1.575.419 2.277.484.46.622 1.418-.207 1.66-2.501 1.046-6.123 1.565-8.894 1.738.014-.682.19-1.742-1.055-1.745-1.339-.004-1.182 1.085-1.19 1.74-2.894-.208-6.58-.808-9.115-2.039-.446-.393-.425-1.111.115-1.437-.504-.965-.206-1.54.412-2.244a2.048 2.048 0 0 1 .781-2.496c-.2-.852.341-1.741 1.23-2.154-.114-.968.65-1.911 1.706-2.255.183-.595.83-1.169 1.593-1.37.585-.951 1.353-1.629 2.455-1.65.498-.779 1.197-1.022 1.967-1.014.685.007 1.875.331 2.212 1.037 1.246.1 1.784.703 2.29 1.819zM2.163 16.343c3.463 1.426 7.352 2.074 11.207 1.997 3.261-.035 6.478-.715 9.456-1.801l1.163.727.011 1.748-23-.02V17.01ZM15.113 1.26c1.133.02 2.182.72 2.473 1.64.86.326 1.604.939 1.87 1.714.908.511 1.617 1.34 1.69 2.277.876.56 1.336 1.484 1.295 2.4.835.676 1 1.728.815 2.65.702.572.812 1.501.481 2.247.238.595.323 1.255.09 1.862.37.32.892.585 1.173.94-.01 1.349-.02 1.645-.03 2.994L.007 20 0 16.662l.97-.88a1.656 1.656 0 0 1 .183-1.716c-.499-.77-.17-1.725.45-2.373-.228-.92.05-1.944.846-2.622.03-.879.43-1.817 1.326-2.325.175-.92.774-1.834 1.78-2.277.255-.721.912-1.366 1.779-1.592.318-.936 1.401-1.646 2.562-1.64C10.7.215 11.324 0 12.437 0c1.26 0 2.027.393 2.676 1.261z"/>
</svg>
