<svg width="20" height="22" xmlns="http://www.w3.org/2000/svg">
 <rect style="fill:#fff;stroke:#006747;stroke-width:1" width="19" height="21" x=".5" y=".5" rx="1.5" ry="1.5"/>
 <path style="fill:#006747;fill-opacity:1;fill-rule:evenodd;stroke:none;stroke-width:.0632522;stroke-linecap:butt;stroke-linejoin:miter;stroke-miterlimit:4;stroke-dasharray:none;stroke-opacity:1" d="M10.067 1.5c-.016.427-.563.161-.68.24-.22.1-.047.48-.402.327-.183.089-.377.088-.57.15.047.321-.165.493-.475.495-.096.228-.907.266-.436.521.341.291-.25.646-.357.93-.14.16-.299.578.043.597.068.39-.188.863-.027 1.197.212-.14.208 0 .283.182.238.052.357-.535.673-.265.407.04.559.422.51.775.187.208.36.388.15.662-.206.581-.336 1.19-.595 1.752-.056.518.493.876.962.868.57.07 1.187.157 1.716-.132.373-.22 1.08.031 1.211-.485-.024-.397-.358-.697-.41-1.096-.133-.491-.29-.983-.354-1.488-.06-.303.197-.325.398-.253.21-.127.415-.12.458.144.22.07.127-.594.416-.29.03-.486.464-.84.443-1.336.014-.436-.036-.891-.244-1.28-.127-.41-.336-.783-.57-1.139-.271-.31-.706-.393-1.105-.462-.312-.03-.554-.14-.586-.478-.11-.031-.156.052-.215-.064-.31.276-.063-.061-.237-.072Z"/>
</svg>
