<svg width="21" height="24" xmlns="http://www.w3.org/2000/svg">
 <path d="M10.5 0c-2.294.7-4.339 1.788-6 3.162C1.71 5.468 0 8.578 0 12c0 3.422 1.71 6.532 4.5 8.838 1.661 1.374 3.706 2.463 6 3.162 2.294-.7 4.339-1.788 6-3.162C19.29 18.532 21 15.422 21 12c0-3.422-1.71-6.532-4.5-8.838C14.84 1.787 12.794.698 10.5 0Z" style="fill:#fff;fill-opacity:1;fill-rule:nonzero;stroke:none;stroke-width:.0530068"/>
 <path d="M10.5 1c2.07.685 3.909 1.695 5.404 2.946 2.252 1.885 3.724 4.317 4.035 7.007.4 3.463-1.183 6.71-4.035 9.1C14.414 21.3 12.58 22.312 10.5 23c-2.08-.687-3.915-1.7-5.404-2.948-2.852-2.388-4.435-5.636-4.035-9.099.31-2.69 1.783-5.122 4.035-7.007C6.591 2.696 8.43 1.686 10.5 1Z" style="fill:#003f87;fill-opacity:1;fill-rule:nonzero;stroke:none;stroke-width:.0551369"/>
</svg>
