<svg width="20" height="20" version="1.0" xmlns="http://www.w3.org/2000/svg">
 <path d="M9.36.509c.399-.017.793-.004 1.191-.007.368.044.74-.007 1.107.05.208.034.422 0 .63.047.166.037.344.01.514.05 1.201.137 2.402.358 3.56.73.36.127.738.227 1.06.44.531.349.986.814 1.314 1.356.274.431.485.903.609 1.401.06.194.067.398.107.599.03.177.016.358.02.535 0 .18-.06.354-.057.535-.238 1.916-.917 3.75-1.75 5.479-.879 1.786-1.963 3.481-3.277 4.98-.421.478-.863.943-1.348 1.358-.291.274-.605.515-.916.759a3.507 3.507 0 0 1-1.606.639c-.264.01-.525.067-.79.017a3.416 3.416 0 0 1-1.595-.482c-.22-.127-.414-.294-.612-.455-.21-.157-.401-.334-.595-.508-.622-.536-1.17-1.15-1.7-1.776a23.574 23.574 0 0 1-3.19-5.168C1.38 9.65.872 8.138.628 6.579c-.02-.164-.05-.328-.054-.495-.056-.25-.05-.511-.043-.766.047-.374.1-.749.23-1.103a4.838 4.838 0 0 1 1.054-1.753c.388-.415.856-.773 1.405-.94 1.21-.441 2.482-.686 3.753-.85.157 0 .31-.053.468-.05.19.007.375-.056.569-.05.21.01.421-.047.635-.047.238-.013.478.014.716-.016" fill="#bf2033" stroke="#003f87" stroke-linecap="round" stroke-linejoin="round"/>
</svg>
