<svg width="20" height="20" xml:space="preserve" xmlns="http://www.w3.org/2000/svg">
 <path style="color:#000;fill:#006747;-inkscape-stroke:none" d="M2 0c-.943 0-2 1.057-2 2v11c0 2.164 1.573 3.92 3.553 5.117S7.966 20 10 20s4.467-.686 6.447-1.883C18.427 16.921 20 15.164 20 13V2c0-.943-1.057-2-2-2Z"/>
 <path style="color:#000;fill:#fff;-inkscape-stroke:none" d="M2 4h16c.167 0 .448.124.662.338.214.214.338.495.338.662v8c0 1.672-1.26 3.168-3.07 4.262C14.12 18.356 11.803 19 10 19s-4.12-.644-5.93-1.738C2.26 16.168 1 14.672 1 13V5c0-.167.124-.448.338-.662C1.552 4.124 1.833 4 2 4Z"/>
</svg>
