<svg width="25" height="20" xml:space="preserve" xmlns="http://www.w3.org/2000/svg">
 <rect fill="#fff" x=".5" y=".5" stroke="#666" width="24" height="19" ry="1.5" rx="1.5" style="stroke:#000;stroke-width:1;stroke-miterlimit:4"/>
 <path d="M19.933 18.25c-.264-.151-.506-.29-.538-.307-.056-.032-.055-.036.138-.387.107-.195.2-.36.205-.365.006-.006.215.104.465.244l.454.255.333-.018.333-.019.648-.638.649-.64.037-.734.036-.735-.083-.514-.083-.515-.426-.834-.427-.834-.267-1.483-.268-1.484.189-.976.189-.977-.712-2.423a188.567 188.567 0 0 0-.725-2.436 3.03 3.03 0 0 0-.372-.028l-.36-.014-.115.241-.116.24-3.583-.006-3.584-.007-.111-.277-.112-.277-2.136-.007-2.136-.007.016.078.098.55.082.472.393.03c.537.042.545.042.713-.052l.147-.082.74.162c.408.09.768.174.8.188.033.014.512.378 1.065.808l1.006.783 1.096-.278 1.096-.278.565.313c.31.172.57.318.577.324.017.018-.365.726-.392.726-.012 0-.212-.106-.443-.235l-.42-.236-1.13.287c-.62.157-1.14.279-1.155.27-.015-.009-.518-.397-1.119-.863l-1.09-.847-.508-.11c-.28-.061-.526-.111-.55-.111a.517.517 0 0 0-.154.064l-.114.064-.911-.07-.912-.068-.227-1.28-.242-1.353-.013-.072h5.82l.11.276.11.277H18.6l.109-.238.109-.238.94.018.945.02c.002.002.378 1.276.835 2.832l.831 2.828-.193 1.002-.194 1.001.238 1.325.237 1.324.43.843.429.844.103.62.103.62-.045.957-.046.958-.869.861-.868.862-.173.016c-.095.009-.383.023-.64.031l-.468.015z"/>
</svg>
