<svg width="20" height="20" xml:space="preserve" xmlns="http://www.w3.org/2000/svg">
 <path d="M10.067.508c-.69.007-1.416.442-1.684 1.13-.926-.032-1.925.652-2.05 1.665-.77.087-1.29.828-1.472 1.567-.685.317-1.205 1.053-1.216 1.852-.056.495-.63.59-.795 1.03-.262.443-.343.988-.28 1.501-.729.583-.98 1.678-.676 2.572-.66.532-.704 1.57-.337 2.3-.43.49-.4 1.272-.074 1.814-.308.363-.792.593-1.036.985.007 1.207.014 1.361.021 2.569l19.07-.016c.006-1.147.01-1.241.015-2.389-.352-.31-.727-.597-1.037-.956.344-.57.297-1.342-.074-1.884.424-.66.316-1.64-.242-2.174-.092-.307.153-.64.082-.973a2.298 2.298 0 0 0-.755-1.629c.095-.894-.256-1.86-1.015-2.325.038-.95-.547-1.819-1.326-2.251-.104-.763-.699-1.42-1.424-1.543-.1-.994-1.007-1.733-1.934-1.716-.364-.669-1.012-1.142-1.761-1.13Z" style="fill:#fff;stroke-width:.0373174"/>
 <path style="fill-rule:evenodd;stroke-width:.0373174" d="M8.509 2.204c.173-.635.854-1.09 1.45-1.089.742.002 1.488.378 1.758 1.137.933.164 1.383.604 1.711 1.529.807.164 1.24 1.046 1.331 1.62.862.206 1.419 1.207 1.23 2.103.656.397 1.17 1.382 1.003 2.19.607.752.695 1.27.567 2.414.624.535.828 1.575.337 2.277.39.46.5 1.418-.166 1.66-2.013 1.046-4.238 1.57-6.468 1.744.011-.682.132-1.723-1.262-1.752-1.44-.029-1.288 1.047-1.294 1.702-2.33-.208-4.683-.77-6.722-2-.36-.393-.342-1.111.092-1.437-.546-.983-.46-1.64.332-2.244-.286-.862-.073-1.923.629-2.496-.162-.852.274-1.741.989-2.154-.091-.968.523-1.911 1.373-2.254.147-.596.491-1.002 1.15-1.328.38-.913.831-1.296 1.96-1.622ZM1.83 16.343c2.733 1.426 5.802 2.074 8.845 1.997 2.573-.035 5.112-.715 7.462-1.801.29.251.705.433.918.727l.009 1.748-18.152-.02V17.01c0-.391.612-.445.918-.668zM12.09 1.26c.907.02 1.746.72 1.979 1.64.688.326 1.283.939 1.495 1.714.727.511 1.294 1.34 1.352 2.277.701.56 1.07 1.484 1.037 2.4.668.676.8 1.728.652 2.65.561.572.65 1.501.385 2.247.19.595.258 1.255.071 1.862.297.32.714.585.939.94-.008 1.349-.016 1.645-.024 2.994L.006 20 0 16.662l.776-.88c-.203-.55-.166-1.219.146-1.716-.399-.77-.135-1.725.36-2.373-.182-.92.041-1.944.677-2.622.024-.879.344-1.817 1.06-2.325.141-.92.62-1.834 1.424-2.277.205-.721.73-1.366 1.424-1.592.254-.936 1.121-1.646 2.05-1.64.642-1.021 2-1.603 3.074-.981.443.228.816.582 1.1 1.005z"/>
</svg>
